<svg width="16" height="16" viewBox="0 0 16 16" fill="none" xmlns="http://www.w3.org/2000/svg">
<path fill-rule="evenodd" clip-rule="evenodd" d="M2.4 5.89474C2.4 3.56933 4.19086 1.68421 6.4 1.68421H9.6C11.8091 1.68421 13.6 3.56933 13.6 5.89474V6.60059C12.7566 5.55746 11.2208 5.56353 10.3854 6.61878C10.1849 6.87217 9.81512 6.87217 9.61456 6.61878C8.77432 5.55742 7.22568 5.55742 6.38542 6.61878C6.18484 6.87217 5.81516 6.87217 5.61458 6.61878C4.77916 5.56353 3.24348 5.55746 2.4 6.60059V5.89474ZM15.2 5.89474V6.31579C15.4047 6.31579 15.6094 6.39798 15.7657 6.56244C16.0781 6.89128 16.0781 7.42451 15.7657 7.75335L15.6197 7.90703C15.3235 8.21886 14.9645 8.42021 14.5872 8.51326C15.4052 8.77735 16 9.57869 16 10.5263C16 11.2511 15.652 11.8904 15.1223 12.2691C15.1721 12.3789 15.2 12.5018 15.2 12.6316V13.0526C15.2 14.6804 13.9464 16 12.4 16H3.6C2.0536 16 0.8 14.6804 0.8 13.0526V12.6316C0.8 12.5018 0.827888 12.3789 0.877696 12.2691C0.347984 11.8904 0 11.2511 0 10.5263C0 9.57869 0.594784 8.77735 1.41282 8.51326C1.0355 8.42021 0.676512 8.21886 0.380296 7.90703L0.234312 7.75335C-0.078104 7.42451 -0.078104 6.89128 0.234312 6.56244C0.390528 6.39798 0.595264 6.31579 0.8 6.31579V5.89474C0.8 2.63917 3.30721 0 6.4 0H9.6C12.6928 0 15.2 2.63917 15.2 5.89474ZM2.68773 8.42105H5.46607C5.05962 8.30947 4.67922 8.06813 4.38542 7.69701C4.18484 7.44362 3.81516 7.44362 3.61458 7.69701L3.56884 7.75478C3.32391 8.06417 3.01893 8.28682 2.68773 8.42105ZM6.53392 8.42105H9.46608C9.0596 8.30947 8.6792 8.06813 8.38544 7.69701C8.18488 7.44362 7.81512 7.44362 7.61456 7.69701C7.3208 8.06813 6.9404 8.30947 6.53392 8.42105ZM10.5339 8.42105H13.3122C12.981 8.28682 12.6761 8.06417 12.4311 7.75478L12.3854 7.69701C12.1849 7.44362 11.8151 7.44362 11.6146 7.69701C11.3208 8.06813 10.9404 8.30947 10.5339 8.42105ZM2.4 12.6316V13.0526C2.4 13.7502 2.93726 14.3158 3.6 14.3158H12.4C13.0627 14.3158 13.6 13.7502 13.6 13.0526V12.6316H2.4ZM1.6 10.5263C1.6 10.2938 1.77909 10.1053 2 10.1053H14C14.2209 10.1053 14.4 10.2938 14.4 10.5263C14.4 10.7588 14.2209 10.9474 14 10.9474H2C1.77909 10.9474 1.6 10.7588 1.6 10.5263Z" fill="#FF0000"/>
</svg>
