<svg width="40" height="40" viewBox="0 0 40 40" fill="none" xmlns="http://www.w3.org/2000/svg">
<path fill-rule="evenodd" clip-rule="evenodd" d="M3.33325 10C3.33325 6.31814 6.31802 3.33337 9.99992 3.33337H29.9999C33.6818 3.33337 36.6666 6.31814 36.6666 10V30C36.6666 33.6819 33.6818 36.6667 29.9999 36.6667H9.99992C6.31802 36.6667 3.33325 33.6819 3.33325 30V10ZM9.99992 6.66671C8.15897 6.66671 6.66659 8.15909 6.66659 10V30C6.66659 31.841 8.15897 33.3334 9.99992 33.3334H19.9999V21.6667H18.3333C17.4128 21.6667 16.6666 20.9205 16.6666 20C16.6666 19.0795 17.4128 18.3334 18.3333 18.3334H19.9999V15.8334C19.9999 12.6117 22.6116 10 25.8333 10H26.8333C27.7538 10 28.4999 10.7462 28.4999 11.6667C28.4999 12.5872 27.7538 13.3334 26.8333 13.3334H25.8333C24.4526 13.3334 23.3333 14.4527 23.3333 15.8334V18.3334H26.8333C27.7538 18.3334 28.4999 19.0795 28.4999 20C28.4999 20.9205 27.7538 21.6667 26.8333 21.6667H23.3333V33.3334H29.9999C31.8409 33.3334 33.3333 31.841 33.3333 30V10C33.3333 8.15909 31.8409 6.66671 29.9999 6.66671H9.99992Z" fill="white"/>
</svg>
