<svg width="40" height="40" viewBox="0 0 40 40" fill="none" xmlns="http://www.w3.org/2000/svg">
<path fill-rule="evenodd" clip-rule="evenodd" d="M3.33325 10C3.33325 6.31814 6.31802 3.33337 9.99992 3.33337H29.9999C33.6818 3.33337 36.6666 6.31814 36.6666 10V30C36.6666 33.6819 33.6818 36.6667 29.9999 36.6667H9.99992C6.31802 36.6667 3.33325 33.6819 3.33325 30V10ZM9.99992 6.66671C8.15897 6.66671 6.66659 8.15909 6.66659 10V30C6.66659 31.841 8.15897 33.3334 9.99992 33.3334H29.9999C31.8409 33.3334 33.3333 31.841 33.3333 30V10C33.3333 8.15909 31.8409 6.66671 29.9999 6.66671H9.99992ZM19.9999 15C17.2384 15 14.9999 17.2385 14.9999 20C14.9999 22.7615 17.2384 25 19.9999 25C22.7614 25 24.9999 22.7615 24.9999 20C24.9999 17.2385 22.7614 15 19.9999 15ZM11.6666 20C11.6666 15.3977 15.3976 11.6667 19.9999 11.6667C24.6023 11.6667 28.3333 15.3977 28.3333 20C28.3333 24.6024 24.6023 28.3334 19.9999 28.3334C15.3976 28.3334 11.6666 24.6024 11.6666 20ZM29.1666 13.3334C30.5473 13.3334 31.6666 12.2141 31.6666 10.8334C31.6666 9.45266 30.5473 8.33337 29.1666 8.33337C27.7859 8.33337 26.6666 9.45266 26.6666 10.8334C26.6666 12.2141 27.7859 13.3334 29.1666 13.3334Z" fill="white"/>
</svg>
