<svg width="40" height="40" viewBox="0 0 40 40" fill="none" xmlns="http://www.w3.org/2000/svg">
<path fill-rule="evenodd" clip-rule="evenodd" d="M24.7477 9.43075C21.907 9.43075 19.6043 11.7335 19.6043 14.5741C19.6043 14.9217 19.6385 15.2597 19.7033 15.5853C19.8077 16.1098 19.654 16.6525 19.2902 17.0445C18.9263 17.4365 18.3965 17.63 17.8657 17.5648C14.1853 17.1133 10.8375 15.5926 8.14163 13.3257C8.19415 14.3289 8.54191 15.3945 9.29665 16.5109L10.4279 18.1843L8.57018 18.9772L8.21173 19.1302C8.47817 19.4348 8.7985 19.7478 9.15615 20.0553C9.56195 20.4042 9.95412 20.6942 10.2454 20.8968C10.3901 20.9975 10.5075 21.075 10.5862 21.1258C10.6254 21.1512 10.6549 21.1697 10.673 21.181L10.6916 21.1925L10.693 21.1935L13.2741 22.7583L10.5733 24.1088C10.4396 24.1757 10.3061 24.2353 10.1732 24.2883C10.7154 24.7452 11.3753 25.1658 12.0773 25.4977L14.3937 26.5927L12.4538 28.2663C11.3948 29.18 10.3296 29.861 8.9491 30.221C10.9947 31.3125 13.3386 31.9327 15.8323 31.9327C23.8408 31.9327 30.291 25.5417 30.291 17.7093V16.8432L30.9997 16.3453C32.106 15.5684 32.8882 14.5178 33.4482 13.3167H30.8997H29.8473L29.395 12.3666C28.5668 10.6272 26.7953 9.43075 24.7477 9.43075ZM5.94803 21.5968C5.63385 21.9567 5.48488 22.4403 5.55321 22.9255C5.74123 24.2605 6.54068 25.4103 7.42407 26.288C7.66397 26.5263 7.92053 26.7552 8.18993 26.9733C8.14877 26.9848 8.10728 26.9958 8.06541 27.0063C7.26315 27.2072 6.1821 27.249 4.37925 27.0723C3.68223 27.004 3.0169 27.3788 2.71402 28.0103C2.41113 28.6417 2.53533 29.3952 3.02487 29.896C6.26155 33.2075 10.8069 35.266 15.8323 35.266C25.3533 35.266 33.163 27.8732 33.6047 18.5433C35.7535 16.7382 36.8293 14.2945 37.4097 12.071C37.5402 11.5715 37.4317 11.0398 37.116 10.6312C36.8005 10.2226 36.3133 9.9834 35.7972 9.9834H31.8745C30.3668 7.64755 27.7395 6.09741 24.7477 6.09741C20.2993 6.09741 16.6512 9.52391 16.2988 13.8815C13.1839 13.0743 10.4508 11.3126 8.43105 8.92346C8.06265 8.48768 7.4969 8.27066 6.93156 8.34828C6.36623 8.4259 5.8799 8.78735 5.64258 9.3063C4.63478 11.5099 4.44057 14.0517 5.5686 16.6341L5.1791 16.8003C4.40777 17.1295 4.00121 17.9807 4.22983 18.7875C4.53793 19.875 5.23548 20.8352 5.94803 21.5968Z" fill="white"/>
</svg>
