<svg width="428" height="221" viewBox="0 0 428 221" fill="none" xmlns="http://www.w3.org/2000/svg">
<mask id="path-1-outside-1_4_5" maskUnits="userSpaceOnUse" x="44" y="133" width="342" height="53" fill="black">
<rect fill="white" x="44" y="133" width="342" height="53"/>
<path d="M46.0727 183V136.455H65.4818C68.9667 136.455 71.8833 136.947 74.2318 137.932C76.5955 138.917 78.3682 140.295 79.55 142.068C80.747 143.841 81.3455 145.894 81.3455 148.227C81.3455 150 80.9742 151.583 80.2318 152.977C79.4894 154.356 78.4667 155.5 77.1636 156.409C75.8606 157.318 74.353 157.955 72.6409 158.318V158.773C74.5197 158.864 76.2545 159.371 77.8455 160.295C79.4515 161.22 80.7394 162.508 81.7091 164.159C82.6788 165.795 83.1636 167.735 83.1636 169.977C83.1636 172.477 82.5273 174.712 81.2546 176.682C79.9818 178.636 78.1409 180.182 75.7318 181.318C73.3227 182.439 70.3985 183 66.9591 183H46.0727ZM57.3227 173.932H64.2773C66.7167 173.932 68.5121 173.47 69.6636 172.545C70.8303 171.621 71.4136 170.333 71.4136 168.682C71.4136 167.485 71.1333 166.455 70.5727 165.591C70.0121 164.712 69.2167 164.038 68.1864 163.568C67.1561 163.083 65.9212 162.841 64.4818 162.841H57.3227V173.932ZM57.3227 155.591H63.55C64.7773 155.591 65.8682 155.386 66.8227 154.977C67.7773 154.568 68.5197 153.977 69.05 153.205C69.5955 152.432 69.8682 151.5 69.8682 150.409C69.8682 148.848 69.3152 147.621 68.2091 146.727C67.103 145.833 65.6106 145.386 63.7318 145.386H57.3227V155.591ZM123.132 136.455H134.359V166.477C134.359 169.947 133.533 172.97 131.882 175.545C130.23 178.106 127.927 180.091 124.973 181.5C122.018 182.894 118.586 183.591 114.677 183.591C110.723 183.591 107.268 182.894 104.314 181.5C101.359 180.091 99.0636 178.106 97.4273 175.545C95.7909 172.97 94.9727 169.947 94.9727 166.477V136.455H106.223V165.5C106.223 167.106 106.571 168.538 107.268 169.795C107.98 171.053 108.973 172.038 110.245 172.75C111.518 173.462 112.995 173.818 114.677 173.818C116.359 173.818 117.829 173.462 119.086 172.75C120.359 172.038 121.352 171.053 122.064 169.795C122.776 168.538 123.132 167.106 123.132 165.5V136.455ZM147.81 183V136.455H167.038C170.522 136.455 173.53 137.083 176.06 138.341C178.606 139.583 180.568 141.371 181.947 143.705C183.325 146.023 184.015 148.773 184.015 151.955C184.015 155.182 183.31 157.924 181.901 160.182C180.492 162.424 178.492 164.136 175.901 165.318C173.31 166.485 170.242 167.068 166.697 167.068H154.538V158.205H164.606C166.303 158.205 167.719 157.985 168.856 157.545C170.007 157.091 170.878 156.409 171.469 155.5C172.06 154.576 172.356 153.394 172.356 151.955C172.356 150.515 172.06 149.326 171.469 148.386C170.878 147.432 170.007 146.72 168.856 146.25C167.704 145.765 166.288 145.523 164.606 145.523H159.06V183H147.81ZM174.015 161.727L185.606 183H173.333L161.969 161.727H174.015ZM227.131 151.659C226.873 150.705 226.494 149.864 225.994 149.136C225.494 148.394 224.881 147.765 224.153 147.25C223.426 146.735 222.593 146.348 221.653 146.091C220.714 145.818 219.684 145.682 218.562 145.682C216.305 145.682 214.35 146.227 212.699 147.318C211.062 148.409 209.797 150 208.903 152.091C208.009 154.167 207.562 156.689 207.562 159.659C207.562 162.644 207.994 165.189 208.858 167.295C209.722 169.402 210.972 171.008 212.608 172.114C214.244 173.22 216.229 173.773 218.562 173.773C220.623 173.773 222.366 173.439 223.79 172.773C225.229 172.091 226.32 171.129 227.062 169.886C227.805 168.644 228.176 167.182 228.176 165.5L230.267 165.75H218.949V157.545H239.017V163.705C239.017 167.871 238.131 171.439 236.358 174.409C234.6 177.379 232.176 179.659 229.085 181.25C226.009 182.841 222.472 183.636 218.472 183.636C214.032 183.636 210.131 182.674 206.767 180.75C203.403 178.826 200.782 176.083 198.903 172.523C197.025 168.947 196.085 164.705 196.085 159.795C196.085 155.977 196.653 152.591 197.79 149.636C198.926 146.667 200.509 144.152 202.54 142.091C204.585 140.03 206.949 138.47 209.631 137.409C212.328 136.348 215.229 135.818 218.335 135.818C221.032 135.818 223.54 136.205 225.858 136.977C228.191 137.75 230.252 138.841 232.04 140.25C233.843 141.659 235.305 143.333 236.426 145.273C237.547 147.212 238.244 149.341 238.517 151.659H227.131ZM252.048 183V136.455H284.502V145.591H263.298V155.136H282.843V164.295H263.298V173.864H284.502V183H252.048ZM297.948 183V136.455H317.175C320.66 136.455 323.667 137.083 326.198 138.341C328.743 139.583 330.705 141.371 332.084 143.705C333.463 146.023 334.152 148.773 334.152 151.955C334.152 155.182 333.448 157.924 332.039 160.182C330.63 162.424 328.63 164.136 326.039 165.318C323.448 166.485 320.38 167.068 316.834 167.068H304.675V158.205H314.743C316.44 158.205 317.857 157.985 318.993 157.545C320.145 157.091 321.016 156.409 321.607 155.5C322.198 154.576 322.493 153.394 322.493 151.955C322.493 150.515 322.198 149.326 321.607 148.386C321.016 147.432 320.145 146.72 318.993 146.25C317.842 145.765 316.425 145.523 314.743 145.523H309.198V183H297.948ZM324.152 161.727L335.743 183H323.47L312.107 161.727H324.152ZM371.882 150.409C371.73 148.742 371.056 147.447 369.859 146.523C368.677 145.583 366.988 145.114 364.791 145.114C363.336 145.114 362.124 145.303 361.155 145.682C360.185 146.061 359.458 146.583 358.973 147.25C358.488 147.902 358.238 148.652 358.223 149.5C358.192 150.197 358.329 150.811 358.632 151.341C358.95 151.871 359.405 152.341 359.995 152.75C360.602 153.144 361.329 153.492 362.177 153.795C363.026 154.098 363.98 154.364 365.041 154.591L369.041 155.5C371.344 156 373.374 156.667 375.132 157.5C376.905 158.333 378.389 159.326 379.586 160.477C380.798 161.629 381.715 162.955 382.336 164.455C382.958 165.955 383.276 167.636 383.291 169.5C383.276 172.439 382.533 174.962 381.064 177.068C379.594 179.174 377.48 180.788 374.723 181.909C371.98 183.03 368.67 183.591 364.791 183.591C360.897 183.591 357.503 183.008 354.609 181.841C351.715 180.674 349.465 178.902 347.859 176.523C346.253 174.144 345.427 171.136 345.382 167.5H356.155C356.245 169 356.647 170.25 357.359 171.25C358.071 172.25 359.048 173.008 360.291 173.523C361.548 174.038 363.003 174.295 364.655 174.295C366.17 174.295 367.458 174.091 368.518 173.682C369.594 173.273 370.42 172.705 370.995 171.977C371.571 171.25 371.867 170.417 371.882 169.477C371.867 168.598 371.594 167.848 371.064 167.227C370.533 166.591 369.715 166.045 368.609 165.591C367.518 165.121 366.124 164.689 364.427 164.295L359.564 163.159C355.533 162.235 352.359 160.742 350.041 158.682C347.723 156.606 346.571 153.803 346.586 150.273C346.571 147.394 347.344 144.871 348.905 142.705C350.465 140.538 352.624 138.848 355.382 137.636C358.139 136.424 361.283 135.818 364.814 135.818C368.42 135.818 371.548 136.432 374.2 137.659C376.867 138.871 378.935 140.576 380.405 142.773C381.874 144.97 382.624 147.515 382.655 150.409H371.882Z"/>
</mask>
<path d="M46.0727 183H44.0727V185H46.0727V183ZM46.0727 136.455V134.455H44.0727V136.455H46.0727ZM74.2318 137.932L73.4584 139.776L73.4626 139.778L74.2318 137.932ZM79.55 142.068L77.8859 143.178L77.8925 143.187L79.55 142.068ZM80.2318 152.977L81.9928 153.925L81.9971 153.917L80.2318 152.977ZM77.1636 156.409L76.0193 154.769L76.0193 154.769L77.1636 156.409ZM72.6409 158.318L72.2254 156.362L70.6409 156.698V158.318H72.6409ZM72.6409 158.773H70.6409V160.678L72.5443 160.77L72.6409 158.773ZM77.8455 160.295L76.8408 162.025L76.8479 162.029L77.8455 160.295ZM81.7091 164.159L79.9844 165.172L79.9885 165.179L81.7091 164.159ZM81.2546 176.682L82.9306 177.773L82.9344 177.767L81.2546 176.682ZM75.7318 181.318L76.5757 183.131L76.5851 183.127L75.7318 181.318ZM57.3227 173.932H55.3227V175.932H57.3227V173.932ZM69.6636 172.545L68.4217 170.978L68.4118 170.986L69.6636 172.545ZM70.5727 165.591L68.8866 166.667L68.8909 166.673L68.8952 166.68L70.5727 165.591ZM68.1864 163.568L67.3348 165.378L67.3457 165.383L67.3567 165.388L68.1864 163.568ZM57.3227 162.841V160.841H55.3227V162.841H57.3227ZM57.3227 155.591H55.3227V157.591H57.3227V155.591ZM69.05 153.205L67.4161 152.051L67.4085 152.062L67.401 152.073L69.05 153.205ZM68.2091 146.727L69.4663 145.172L69.4663 145.172L68.2091 146.727ZM57.3227 145.386V143.386H55.3227V145.386H57.3227ZM48.0727 183V136.455H44.0727V183H48.0727ZM46.0727 138.455H65.4818V134.455H46.0727V138.455ZM65.4818 138.455C68.7928 138.455 71.4272 138.924 73.4584 139.776L75.0053 136.087C72.3395 134.97 69.1406 134.455 65.4818 134.455V138.455ZM73.4626 139.778C75.5364 140.642 76.964 141.795 77.8859 143.178L81.2141 140.959C79.7723 138.796 77.6545 137.191 75.0011 136.086L73.4626 139.778ZM77.8925 143.187C78.8459 144.599 79.3455 146.255 79.3455 148.227H83.3455C83.3455 145.533 82.648 143.082 81.2075 140.949L77.8925 143.187ZM79.3455 148.227C79.3455 149.713 79.0368 150.967 78.4666 152.037L81.9971 153.917C82.9117 152.2 83.3455 150.287 83.3455 148.227H79.3455ZM78.4709 152.029C77.8792 153.128 77.0693 154.036 76.0193 154.769L78.308 158.049C79.864 156.964 81.0996 155.584 81.9928 153.925L78.4709 152.029ZM76.0193 154.769C74.957 155.51 73.7026 156.048 72.2254 156.362L73.0564 160.275C75.0035 159.861 76.7643 159.126 78.308 158.049L76.0193 154.769ZM70.6409 158.318V158.773H74.6409V158.318H70.6409ZM72.5443 160.77C74.1107 160.846 75.5331 161.265 76.8408 162.025L78.8501 158.566C76.976 157.477 74.9287 156.881 72.7376 156.775L72.5443 160.77ZM76.8479 162.029C78.1428 162.774 79.1843 163.809 79.9844 165.172L83.4338 163.146C82.2945 161.206 80.7602 159.665 78.843 158.562L76.8479 162.029ZM79.9885 165.179C80.7449 166.455 81.1636 168.029 81.1636 169.977H85.1636C85.1636 167.441 84.6127 165.136 83.4297 163.139L79.9885 165.179ZM81.1636 169.977C81.1636 172.119 80.6244 173.972 79.5747 175.596L82.9344 177.767C84.4301 175.452 85.1636 172.836 85.1636 169.977H81.1636ZM79.5786 175.59C78.5357 177.192 77.0009 178.508 74.8786 179.509L76.5851 183.127C79.2809 181.855 81.4279 180.081 82.9305 177.773L79.5786 175.59ZM74.8879 179.505C72.8089 180.473 70.1894 181 66.9591 181V185C70.6076 185 73.8365 184.406 76.5757 183.131L74.8879 179.505ZM66.9591 181H46.0727V185H66.9591V181ZM57.3227 175.932H64.2773V171.932H57.3227V175.932ZM64.2773 175.932C66.8985 175.932 69.2424 175.448 70.9155 174.105L68.4118 170.986C67.7819 171.491 66.5348 171.932 64.2773 171.932V175.932ZM70.9056 174.113C72.6079 172.765 73.4136 170.868 73.4136 168.682H69.4136C69.4136 169.799 69.0527 170.478 68.4217 170.978L70.9056 174.113ZM73.4136 168.682C73.4136 167.163 73.0538 165.74 72.2503 164.502L68.8952 166.68C69.2129 167.169 69.4136 167.807 69.4136 168.682H73.4136ZM72.2589 164.515C71.4727 163.283 70.3661 162.364 69.016 161.748L67.3567 165.388C68.0673 165.712 68.5516 166.141 68.8866 166.667L72.2589 164.515ZM69.038 161.759C67.6806 161.12 66.1403 160.841 64.4818 160.841V164.841C65.7022 164.841 66.6315 165.047 67.3348 165.378L69.038 161.759ZM64.4818 160.841H57.3227V164.841H64.4818V160.841ZM55.3227 162.841V173.932H59.3227V162.841H55.3227ZM57.3227 157.591H63.55V153.591H57.3227V157.591ZM63.55 157.591C64.9996 157.591 66.3661 157.349 67.6106 156.816L66.0349 153.139C65.3703 153.424 64.5549 153.591 63.55 153.591V157.591ZM67.6106 156.816C68.8744 156.274 69.9316 155.454 70.699 154.336L67.401 152.073C67.1078 152.5 66.6802 152.862 66.0349 153.139L67.6106 156.816ZM70.6839 154.358C71.5027 153.198 71.8682 151.848 71.8682 150.409H67.8682C67.8682 151.152 67.6882 151.666 67.4161 152.051L70.6839 154.358ZM71.8682 150.409C71.8682 148.311 71.0919 146.486 69.4663 145.172L66.9519 148.283C67.5384 148.757 67.8682 149.386 67.8682 150.409H71.8682ZM69.4663 145.172C67.9043 143.909 65.9204 143.386 63.7318 143.386V147.386C65.3008 147.386 66.3018 147.757 66.9519 148.283L69.4663 145.172ZM63.7318 143.386H57.3227V147.386H63.7318V143.386ZM55.3227 145.386V155.591H59.3227V145.386H55.3227ZM123.132 136.455V134.455H121.132V136.455H123.132ZM134.359 136.455H136.359V134.455H134.359V136.455ZM131.882 175.545L133.563 176.629L133.565 176.625L131.882 175.545ZM124.973 181.5L125.826 183.309L125.834 183.305L124.973 181.5ZM104.314 181.5L103.453 183.305L103.46 183.309L104.314 181.5ZM97.4273 175.545L95.7391 176.618L95.742 176.622L97.4273 175.545ZM94.9727 136.455V134.455H92.9727V136.455H94.9727ZM106.223 136.455H108.223V134.455H106.223V136.455ZM107.268 169.795L105.519 170.765L105.523 170.773L105.528 170.781L107.268 169.795ZM110.245 172.75L111.222 171.005L111.222 171.005L110.245 172.75ZM119.086 172.75L118.11 171.005L118.101 171.01L119.086 172.75ZM123.132 138.455H134.359V134.455H123.132V138.455ZM132.359 136.455V166.477H136.359V136.455H132.359ZM132.359 166.477C132.359 169.617 131.616 172.254 130.198 174.466L133.565 176.625C135.45 173.685 136.359 170.277 136.359 166.477H132.359ZM130.201 174.461C128.766 176.687 126.757 178.433 124.112 179.695L125.834 183.305C129.097 181.749 131.695 179.525 133.563 176.629L130.201 174.461ZM124.119 179.691C121.479 180.937 118.349 181.591 114.677 181.591V185.591C118.824 185.591 122.557 184.851 125.826 183.309L124.119 179.691ZM114.677 181.591C110.957 181.591 107.804 180.936 105.167 179.691L103.46 183.309C106.732 184.852 110.489 185.591 114.677 185.591V181.591ZM105.175 179.695C102.53 178.434 100.532 176.69 99.1125 174.468L95.742 176.622C97.5953 179.522 100.188 181.748 103.453 183.305L105.175 179.695ZM99.1154 174.473C97.7096 172.26 96.9727 169.621 96.9727 166.477H92.9727C92.9727 170.273 93.8722 173.679 95.7391 176.618L99.1154 174.473ZM96.9727 166.477V136.455H92.9727V166.477H96.9727ZM94.9727 138.455H106.223V134.455H94.9727V138.455ZM104.223 136.455V165.5H108.223V136.455H104.223ZM104.223 165.5C104.223 167.405 104.639 169.177 105.519 170.765L109.017 168.826C108.504 167.899 108.223 166.807 108.223 165.5H104.223ZM105.528 170.781C106.422 172.36 107.68 173.606 109.269 174.495L111.222 171.005C110.266 170.469 109.539 169.746 109.009 168.81L105.528 170.781ZM109.269 174.495C110.883 175.399 112.706 175.818 114.677 175.818V171.818C113.284 171.818 112.153 171.526 111.222 171.005L109.269 174.495ZM114.677 175.818C116.647 175.818 118.468 175.399 120.072 174.49L118.101 171.01C117.19 171.526 116.071 171.818 114.677 171.818V175.818ZM120.063 174.495C121.652 173.606 122.91 172.36 123.804 170.781L120.323 168.81C119.793 169.746 119.066 170.469 118.11 171.005L120.063 174.495ZM123.804 170.781C124.705 169.19 125.132 167.412 125.132 165.5H121.132C121.132 166.8 120.847 167.885 120.323 168.81L123.804 170.781ZM125.132 165.5V136.455H121.132V165.5H125.132ZM147.81 183H145.81V185H147.81V183ZM147.81 136.455V134.455H145.81V136.455H147.81ZM176.06 138.341L175.17 140.132L175.177 140.135L175.183 140.138L176.06 138.341ZM181.947 143.705L180.225 144.722L180.228 144.727L181.947 143.705ZM181.901 160.182L183.595 161.246L183.598 161.241L181.901 160.182ZM175.901 165.318L176.722 167.142L176.731 167.138L175.901 165.318ZM154.538 167.068H152.538V169.068H154.538V167.068ZM154.538 158.205V156.205H152.538V158.205H154.538ZM168.856 157.545L169.577 159.411L169.59 159.406L168.856 157.545ZM171.469 155.5L173.146 156.59L173.15 156.584L173.154 156.577L171.469 155.5ZM171.469 148.386L169.769 149.439L169.773 149.445L169.776 149.451L171.469 148.386ZM168.856 146.25L168.08 148.093L168.09 148.098L168.1 148.102L168.856 146.25ZM159.06 145.523V143.523H157.06V145.523H159.06ZM159.06 183V185H161.06V183H159.06ZM174.015 161.727L175.771 160.77L175.203 159.727H174.015V161.727ZM185.606 183V185H188.973L187.362 182.043L185.606 183ZM173.333 183L171.569 183.942L172.134 185H173.333V183ZM161.969 161.727V159.727H158.633L160.205 162.67L161.969 161.727ZM149.81 183V136.455H145.81V183H149.81ZM147.81 138.455H167.038V134.455H147.81V138.455ZM167.038 138.455C170.284 138.455 172.973 139.04 175.17 140.132L176.95 136.55C174.086 135.127 170.761 134.455 167.038 134.455V138.455ZM175.183 140.138C177.393 141.217 179.054 142.741 180.225 144.722L183.668 142.687C182.081 140.001 179.818 137.95 176.938 136.544L175.183 140.138ZM180.228 144.727C181.392 146.684 182.015 149.067 182.015 151.955H186.015C186.015 148.478 185.259 145.361 183.666 142.682L180.228 144.727ZM182.015 151.955C182.015 154.887 181.377 157.245 180.205 159.123L183.598 161.241C185.244 158.604 186.015 155.476 186.015 151.955H182.015ZM180.208 159.118C179.022 161.004 177.335 162.466 175.071 163.499L176.731 167.138C179.649 165.807 181.962 163.844 183.595 161.246L180.208 159.118ZM175.08 163.495C172.803 164.52 170.027 165.068 166.697 165.068V169.068C170.457 169.068 173.818 168.45 176.722 167.142L175.08 163.495ZM166.697 165.068H154.538V169.068H166.697V165.068ZM156.538 167.068V158.205H152.538V167.068H156.538ZM154.538 160.205H164.606V156.205H154.538V160.205ZM164.606 160.205C166.459 160.205 168.139 159.967 169.577 159.411L168.134 155.68C167.299 156.003 166.146 156.205 164.606 156.205V160.205ZM169.59 159.406C171.071 158.821 172.298 157.896 173.146 156.59L169.792 154.41C169.459 154.923 168.943 155.361 168.121 155.685L169.59 159.406ZM173.154 156.577C174.006 155.245 174.356 153.659 174.356 151.955H170.356C170.356 153.129 170.114 153.906 169.784 154.423L173.154 156.577ZM174.356 151.955C174.356 150.248 174.005 148.662 173.162 147.321L169.776 149.451C170.115 149.99 170.356 150.782 170.356 151.955H174.356ZM173.17 147.334C172.332 145.981 171.11 145.01 169.611 144.398L168.1 148.102C168.905 148.43 169.424 148.883 169.769 149.439L173.17 147.334ZM169.632 144.407C168.165 143.789 166.467 143.523 164.606 143.523V147.523C166.108 147.523 167.243 147.741 168.08 148.093L169.632 144.407ZM164.606 143.523H159.06V147.523H164.606V143.523ZM157.06 145.523V183H161.06V145.523H157.06ZM159.06 181H147.81V185H159.06V181ZM172.259 162.684L183.849 183.957L187.362 182.043L175.771 160.77L172.259 162.684ZM185.606 181H173.333V185H185.606V181ZM175.097 182.058L163.733 160.785L160.205 162.67L171.569 183.942L175.097 182.058ZM161.969 163.727H174.015V159.727H161.969V163.727ZM227.131 151.659L225.2 152.18L225.599 153.659H227.131V151.659ZM225.994 149.136L224.335 150.254L224.341 150.262L224.346 150.269L225.994 149.136ZM221.653 146.091L221.096 148.012L221.11 148.016L221.125 148.02L221.653 146.091ZM212.699 147.318L211.597 145.649L211.589 145.654L212.699 147.318ZM208.903 152.091L210.74 152.882L210.742 152.877L208.903 152.091ZM208.858 167.295L210.708 166.537L210.708 166.537L208.858 167.295ZM212.608 172.114L213.728 170.457L213.728 170.457L212.608 172.114ZM223.79 172.773L224.638 174.584L224.646 174.58L223.79 172.773ZM227.062 169.886L225.346 168.86L225.346 168.86L227.062 169.886ZM228.176 165.5L228.414 163.514L226.176 163.247V165.5H228.176ZM230.267 165.75V167.75L230.504 163.764L230.267 165.75ZM218.949 165.75H216.949V167.75H218.949V165.75ZM218.949 157.545V155.545H216.949V157.545H218.949ZM239.017 157.545H241.017V155.545H239.017V157.545ZM236.358 174.409L234.641 173.384L234.637 173.39L236.358 174.409ZM229.085 181.25L228.17 179.472L228.166 179.474L229.085 181.25ZM206.767 180.75L207.76 179.014L207.76 179.014L206.767 180.75ZM198.903 172.523L197.133 173.453L197.135 173.456L198.903 172.523ZM197.79 149.636L199.656 150.354L199.658 150.351L197.79 149.636ZM202.54 142.091L201.12 140.682L201.115 140.687L202.54 142.091ZM209.631 137.409L208.899 135.548L208.895 135.549L209.631 137.409ZM225.858 136.977L225.225 138.875L225.229 138.876L225.858 136.977ZM232.04 140.25L230.802 141.821L230.808 141.826L232.04 140.25ZM236.426 145.273L234.695 146.274L234.695 146.274L236.426 145.273ZM238.517 151.659V153.659H240.766L240.503 151.425L238.517 151.659ZM229.062 151.138C228.752 149.991 228.285 148.938 227.642 148.003L224.346 150.269C224.704 150.789 224.994 151.418 225.2 152.18L229.062 151.138ZM227.653 148.019C227.019 147.077 226.235 146.274 225.309 145.618L222.997 148.882C223.526 149.257 223.97 149.711 224.335 150.254L227.653 148.019ZM225.309 145.618C224.375 144.956 223.326 144.476 222.182 144.162L221.125 148.02C221.86 148.221 222.477 148.514 222.997 148.882L225.309 145.618ZM222.211 144.17C221.066 143.838 219.845 143.682 218.562 143.682V147.682C219.522 147.682 220.362 147.799 221.096 148.012L222.211 144.17ZM218.562 143.682C215.97 143.682 213.619 144.313 211.597 145.649L213.801 148.987C215.081 148.141 216.64 147.682 218.562 147.682V143.682ZM211.589 145.654C209.582 146.993 208.087 148.914 207.064 151.305L210.742 152.877C211.508 151.086 212.543 149.826 213.808 148.982L211.589 145.654ZM207.067 151.3C206.037 153.691 205.562 156.499 205.562 159.659H209.562C209.562 156.88 209.982 154.643 210.74 152.882L207.067 151.3ZM205.562 159.659C205.562 162.827 206.02 165.645 207.007 168.054L210.708 166.537C209.969 164.734 209.562 162.461 209.562 159.659H205.562ZM207.007 168.054C207.997 170.468 209.477 172.412 211.488 173.771L213.728 170.457C212.466 169.604 211.446 168.335 210.708 166.537L207.007 168.054ZM211.488 173.771C213.511 175.138 215.904 175.773 218.562 175.773V171.773C216.554 171.773 214.977 171.301 213.728 170.457L211.488 173.771ZM218.562 175.773C220.829 175.773 222.879 175.407 224.638 174.584L222.942 170.961C221.852 171.472 220.417 171.773 218.562 171.773V175.773ZM224.646 174.58C226.406 173.747 227.813 172.529 228.779 170.912L225.346 168.86C224.827 169.729 224.053 170.435 222.934 170.965L224.646 174.58ZM228.779 170.912C229.735 169.312 230.176 167.484 230.176 165.5H226.176C226.176 166.88 225.875 167.975 225.346 168.86L228.779 170.912ZM227.939 167.486L230.03 167.736L230.504 163.764L228.414 163.514L227.939 167.486ZM230.267 163.75H218.949V167.75H230.267V163.75ZM220.949 165.75V157.545H216.949V165.75H220.949ZM218.949 159.545H239.017V155.545H218.949V159.545ZM237.017 157.545V163.705H241.017V157.545H237.017ZM237.017 163.705C237.017 167.584 236.194 170.782 234.641 173.384L238.075 175.434C240.068 172.097 241.017 168.158 241.017 163.705H237.017ZM234.637 173.39C233.072 176.034 230.929 178.052 228.17 179.472L230.001 183.028C233.424 181.266 236.128 178.724 238.079 175.428L234.637 173.39ZM228.166 179.474C225.416 180.896 222.202 181.636 218.472 181.636V185.636C222.742 185.636 226.603 184.786 230.004 183.026L228.166 179.474ZM218.472 181.636C214.329 181.636 210.78 180.741 207.76 179.014L205.774 182.486C209.482 184.607 213.735 185.636 218.472 185.636V181.636ZM207.76 179.014C204.739 177.286 202.381 174.828 200.672 171.589L197.135 173.456C199.183 177.339 202.068 180.366 205.774 182.486L207.76 179.014ZM200.674 171.592C198.975 168.359 198.085 164.449 198.085 159.795H194.085C194.085 164.96 195.074 169.535 197.133 173.453L200.674 171.592ZM198.085 159.795C198.085 156.173 198.624 153.038 199.656 150.354L195.923 148.918C194.682 152.144 194.085 155.781 194.085 159.795H198.085ZM199.658 150.351C200.705 147.613 202.146 145.34 203.964 143.495L201.115 140.687C198.873 142.963 197.147 145.72 195.922 148.922L199.658 150.351ZM203.959 143.5C205.812 141.634 207.943 140.227 210.366 139.269L208.895 135.549C205.955 136.712 203.359 138.427 201.12 140.682L203.959 143.5ZM210.363 139.27C212.81 138.308 215.462 137.818 218.335 137.818V133.818C214.997 133.818 211.845 134.389 208.899 135.548L210.363 139.27ZM218.335 137.818C220.839 137.818 223.131 138.177 225.226 138.875L226.49 135.08C223.948 134.233 221.225 133.818 218.335 133.818V137.818ZM225.229 138.876C227.36 139.581 229.21 140.567 230.802 141.821L233.278 138.679C231.293 137.115 229.023 135.919 226.487 135.079L225.229 138.876ZM230.808 141.826C232.414 143.081 233.705 144.561 234.695 146.274L238.158 144.272C236.905 142.106 235.272 140.238 233.271 138.674L230.808 141.826ZM234.695 146.274C235.674 147.967 236.288 149.833 236.531 151.893L240.503 151.425C240.2 148.848 239.421 146.457 238.158 144.272L234.695 146.274ZM238.517 149.659H227.131V153.659H238.517V149.659ZM252.048 183H250.048V185H252.048V183ZM252.048 136.455V134.455H250.048V136.455H252.048ZM284.502 136.455H286.502V134.455H284.502V136.455ZM284.502 145.591V147.591H286.502V145.591H284.502ZM263.298 145.591V143.591H261.298V145.591H263.298ZM263.298 155.136H261.298V157.136H263.298V155.136ZM282.843 155.136H284.843V153.136H282.843V155.136ZM282.843 164.295V166.295H284.843V164.295H282.843ZM263.298 164.295V162.295H261.298V164.295H263.298ZM263.298 173.864H261.298V175.864H263.298V173.864ZM284.502 173.864H286.502V171.864H284.502V173.864ZM284.502 183V185H286.502V183H284.502ZM254.048 183V136.455H250.048V183H254.048ZM252.048 138.455H284.502V134.455H252.048V138.455ZM282.502 136.455V145.591H286.502V136.455H282.502ZM284.502 143.591H263.298V147.591H284.502V143.591ZM261.298 145.591V155.136H265.298V145.591H261.298ZM263.298 157.136H282.843V153.136H263.298V157.136ZM280.843 155.136V164.295H284.843V155.136H280.843ZM282.843 162.295H263.298V166.295H282.843V162.295ZM261.298 164.295V173.864H265.298V164.295H261.298ZM263.298 175.864H284.502V171.864H263.298V175.864ZM282.502 173.864V183H286.502V173.864H282.502ZM284.502 181H252.048V185H284.502V181ZM297.948 183H295.948V185H297.948V183ZM297.948 136.455V134.455H295.948V136.455H297.948ZM326.198 138.341L325.308 140.132L325.314 140.135L325.32 140.138L326.198 138.341ZM332.084 143.705L330.362 144.722L330.365 144.727L332.084 143.705ZM332.039 160.182L333.732 161.246L333.735 161.241L332.039 160.182ZM326.039 165.318L326.86 167.142L326.869 167.138L326.039 165.318ZM304.675 167.068H302.675V169.068H304.675V167.068ZM304.675 158.205V156.205H302.675V158.205H304.675ZM318.993 157.545L319.714 159.411L319.728 159.406L318.993 157.545ZM321.607 155.5L323.284 156.59L323.288 156.584L323.292 156.577L321.607 155.5ZM321.607 148.386L319.906 149.439L319.91 149.445L319.914 149.451L321.607 148.386ZM318.993 146.25L318.217 148.093L318.227 148.098L318.238 148.102L318.993 146.25ZM309.198 145.523V143.523H307.198V145.523H309.198ZM309.198 183V185H311.198V183H309.198ZM324.152 161.727L325.908 160.77L325.34 159.727H324.152V161.727ZM335.743 183V185H339.111L337.499 182.043L335.743 183ZM323.47 183L321.706 183.942L322.271 185H323.47V183ZM312.107 161.727V159.727H308.771L310.343 162.67L312.107 161.727ZM299.948 183V136.455H295.948V183H299.948ZM297.948 138.455H317.175V134.455H297.948V138.455ZM317.175 138.455C320.422 138.455 323.111 139.04 325.308 140.132L327.088 136.55C324.224 135.127 320.898 134.455 317.175 134.455V138.455ZM325.32 140.138C327.531 141.217 329.192 142.741 330.362 144.722L333.806 142.687C332.219 140.001 329.955 137.95 327.075 136.544L325.32 140.138ZM330.365 144.727C331.529 146.684 332.152 149.067 332.152 151.955H336.152C336.152 148.478 335.396 145.361 333.803 142.682L330.365 144.727ZM332.152 151.955C332.152 154.887 331.514 157.245 330.342 159.123L333.735 161.241C335.381 158.604 336.152 155.476 336.152 151.955H332.152ZM330.345 159.118C329.16 161.004 327.472 162.466 325.209 163.499L326.869 167.138C329.787 165.807 332.099 163.844 333.732 161.246L330.345 159.118ZM325.217 163.495C322.94 164.52 320.165 165.068 316.834 165.068V169.068C320.595 169.068 323.955 168.45 326.86 167.142L325.217 163.495ZM316.834 165.068H304.675V169.068H316.834V165.068ZM306.675 167.068V158.205H302.675V167.068H306.675ZM304.675 160.205H314.743V156.205H304.675V160.205ZM314.743 160.205C316.597 160.205 318.277 159.967 319.714 159.411L318.272 155.68C317.437 156.003 316.283 156.205 314.743 156.205V160.205ZM319.728 159.406C321.209 158.821 322.435 157.896 323.284 156.59L319.93 154.41C319.597 154.923 319.081 155.361 318.259 155.685L319.728 159.406ZM323.292 156.577C324.143 155.245 324.493 153.659 324.493 151.955H320.493C320.493 153.129 320.252 153.906 319.922 154.423L323.292 156.577ZM324.493 151.955C324.493 150.248 324.143 148.662 323.3 147.321L319.914 149.451C320.253 149.99 320.493 150.782 320.493 151.955H324.493ZM323.307 147.334C322.47 145.981 321.247 145.01 319.749 144.398L318.238 148.102C319.042 148.43 319.562 148.883 319.906 149.439L323.307 147.334ZM319.769 144.407C318.303 143.789 316.605 143.523 314.743 143.523V147.523C316.245 147.523 317.38 147.741 318.217 148.093L319.769 144.407ZM314.743 143.523H309.198V147.523H314.743V143.523ZM307.198 145.523V183H311.198V145.523H307.198ZM309.198 181H297.948V185H309.198V181ZM322.396 162.684L333.987 183.957L337.499 182.043L325.908 160.77L322.396 162.684ZM335.743 181H323.47V185H335.743V181ZM325.235 182.058L313.871 160.785L310.343 162.67L321.706 183.942L325.235 182.058ZM312.107 163.727H324.152V159.727H312.107V163.727ZM371.882 150.409L369.89 150.59L370.055 152.409H371.882V150.409ZM369.859 146.523L368.615 148.088L368.626 148.097L368.637 148.106L369.859 146.523ZM361.155 145.682L360.427 143.819L360.427 143.819L361.155 145.682ZM358.973 147.25L360.577 148.444L360.584 148.435L360.59 148.426L358.973 147.25ZM358.223 149.5L360.221 149.587L360.222 149.561L360.222 149.536L358.223 149.5ZM358.632 151.341L356.895 152.333L356.906 152.352L356.917 152.37L358.632 151.341ZM359.995 152.75L358.857 154.394L358.881 154.411L358.905 154.427L359.995 152.75ZM362.177 153.795L362.85 151.912L362.85 151.912L362.177 153.795ZM365.041 154.591L365.484 152.641L365.472 152.638L365.46 152.635L365.041 154.591ZM369.041 155.5L368.598 157.45L368.607 157.452L368.617 157.454L369.041 155.5ZM375.132 157.5L374.275 159.307L374.281 159.31L375.132 157.5ZM379.586 160.477L378.2 161.919L378.209 161.927L379.586 160.477ZM382.336 164.455L380.489 165.22L380.489 165.22L382.336 164.455ZM383.291 169.5L385.291 169.51L385.291 169.497L385.291 169.484L383.291 169.5ZM381.064 177.068L379.424 175.924L379.424 175.924L381.064 177.068ZM374.723 181.909L373.969 180.056L373.966 180.058L374.723 181.909ZM354.609 181.841L355.357 179.986L355.357 179.986L354.609 181.841ZM345.382 167.5V165.5H343.357L343.382 167.525L345.382 167.5ZM356.155 167.5L358.151 167.379L358.037 165.5H356.155V167.5ZM357.359 171.25L355.73 172.41L355.73 172.41L357.359 171.25ZM360.291 173.523L359.525 175.37L359.533 175.373L360.291 173.523ZM368.518 173.682L367.807 171.812L367.798 171.816L368.518 173.682ZM370.995 171.977L369.427 170.736L369.427 170.736L370.995 171.977ZM371.882 169.477L373.882 169.51L373.882 169.476L373.882 169.443L371.882 169.477ZM371.064 167.227L369.527 168.508L369.535 168.517L369.543 168.526L371.064 167.227ZM368.609 165.591L367.818 167.428L367.833 167.434L367.849 167.441L368.609 165.591ZM364.427 164.295L363.972 166.243L363.975 166.244L364.427 164.295ZM359.564 163.159L360.019 161.212L360.011 161.21L359.564 163.159ZM350.041 158.682L348.707 160.172L348.712 160.177L350.041 158.682ZM346.586 150.273L348.586 150.281L348.586 150.272L348.586 150.262L346.586 150.273ZM348.905 142.705L347.282 141.536L347.282 141.536L348.905 142.705ZM355.382 137.636L356.187 139.467L356.187 139.467L355.382 137.636ZM374.2 137.659L373.36 139.474L373.372 139.48L374.2 137.659ZM380.405 142.773L382.067 141.661L382.067 141.661L380.405 142.773ZM382.655 150.409V152.409H384.676L384.654 150.388L382.655 150.409ZM373.874 150.228C373.678 148.073 372.768 146.242 371.081 144.94L368.637 148.106C369.344 148.652 369.783 149.412 369.89 150.59L373.874 150.228ZM371.104 144.957C369.438 143.633 367.241 143.114 364.791 143.114V147.114C366.735 147.114 367.916 147.533 368.615 148.088L371.104 144.957ZM364.791 143.114C363.179 143.114 361.701 143.321 360.427 143.819L361.882 147.545C362.548 147.285 363.494 147.114 364.791 147.114V143.114ZM360.427 143.819C359.194 144.3 358.117 145.026 357.355 146.074L360.59 148.426C360.798 148.141 361.176 147.821 361.882 147.545L360.427 143.819ZM357.368 146.056C356.622 147.059 356.245 148.218 356.223 149.464L360.222 149.536C360.23 149.085 360.354 148.745 360.577 148.444L357.368 146.056ZM356.225 149.413C356.18 150.432 356.379 151.43 356.895 152.333L360.368 150.349C360.278 150.191 360.205 149.962 360.221 149.587L356.225 149.413ZM356.917 152.37C357.403 153.18 358.07 153.85 358.857 154.394L361.134 151.106C360.739 150.832 360.497 150.562 360.347 150.312L356.917 152.37ZM358.905 154.427C359.669 154.923 360.544 155.336 361.505 155.679L362.85 151.912C362.114 151.649 361.534 151.364 361.085 151.073L358.905 154.427ZM361.505 155.679C362.451 156.017 363.492 156.304 364.622 156.547L365.46 152.635C364.469 152.423 363.601 152.18 362.85 151.912L361.505 155.679ZM364.598 156.541L368.598 157.45L369.484 153.55L365.484 152.641L364.598 156.541ZM368.617 157.454C370.801 157.929 372.681 158.551 374.275 159.307L375.989 155.693C374.068 154.782 371.887 154.071 369.465 153.546L368.617 157.454ZM374.281 159.31C375.891 160.067 377.185 160.943 378.2 161.919L380.973 159.036C379.593 157.709 377.918 156.6 375.983 155.69L374.281 159.31ZM378.209 161.927C379.224 162.892 379.978 163.986 380.489 165.22L384.184 163.689C383.453 161.923 382.373 160.366 380.964 159.027L378.209 161.927ZM380.489 165.22C380.998 166.45 381.278 167.872 381.291 169.516L385.291 169.484C385.274 167.401 384.917 165.459 384.184 163.689L380.489 165.22ZM381.291 169.49C381.278 172.084 380.629 174.197 379.424 175.924L382.704 178.213C384.438 175.727 385.274 172.795 385.291 169.51L381.291 169.49ZM379.424 175.924C378.208 177.665 376.427 179.057 373.969 180.056L375.476 183.762C378.533 182.519 380.98 180.683 382.704 178.213L379.424 175.924ZM373.966 180.058C371.525 181.056 368.486 181.591 364.791 181.591V185.591C368.853 185.591 372.435 185.005 375.48 183.76L373.966 180.058ZM364.791 181.591C361.092 181.591 357.962 181.036 355.357 179.986L353.861 183.696C357.044 184.979 360.702 185.591 364.791 185.591V181.591ZM355.357 179.986C352.799 178.955 350.88 177.423 349.517 175.404L346.202 177.642C348.05 180.38 350.631 182.394 353.861 183.696L355.357 179.986ZM349.517 175.404C348.181 173.425 347.424 170.825 347.382 167.475L343.382 167.525C343.431 171.448 344.325 174.863 346.202 177.642L349.517 175.404ZM345.382 169.5H356.155V165.5H345.382V169.5ZM354.158 167.621C354.267 169.411 354.756 171.043 355.73 172.41L358.988 170.09C358.538 169.457 358.224 168.589 358.151 167.379L354.158 167.621ZM355.73 172.41C356.68 173.745 357.97 174.726 359.525 175.37L361.057 171.675C360.127 171.29 359.462 170.755 358.988 170.09L355.73 172.41ZM359.533 175.373C361.077 176.006 362.798 176.295 364.655 176.295V172.295C363.209 172.295 362.02 172.07 361.049 171.672L359.533 175.373ZM364.655 176.295C366.339 176.295 367.885 176.07 369.238 175.548L367.798 171.816C367.03 172.112 366.001 172.295 364.655 172.295V176.295ZM369.229 175.551C370.561 175.045 371.716 174.289 372.564 173.219L369.427 170.736C369.124 171.12 368.627 171.501 367.807 171.812L369.229 175.551ZM372.564 173.219C373.416 172.142 373.859 170.882 373.882 169.51L369.882 169.445C369.874 169.951 369.727 170.358 369.427 170.736L372.564 173.219ZM373.882 169.443C373.859 168.138 373.44 166.931 372.585 165.929L369.543 168.526C369.748 168.766 369.874 169.059 369.882 169.512L373.882 169.443ZM372.6 165.947C371.789 164.974 370.652 164.268 369.369 163.741L367.849 167.441C368.778 167.823 369.277 168.208 369.527 168.508L372.6 165.947ZM369.4 163.754C368.162 163.221 366.644 162.757 364.88 162.347L363.975 166.244C365.604 166.622 366.874 167.021 367.818 167.428L369.4 163.754ZM364.882 162.348L360.019 161.212L359.109 165.107L363.972 166.243L364.882 162.348ZM360.011 161.21C356.203 160.336 353.367 158.962 351.37 157.187L348.712 160.177C351.351 162.522 354.864 164.133 359.117 165.108L360.011 161.21ZM351.375 157.192C349.543 155.551 348.573 153.325 348.586 150.281L344.586 150.264C344.569 154.281 345.903 157.661 348.707 160.172L351.375 157.192ZM348.586 150.262C348.573 147.772 349.234 145.669 350.527 143.873L347.282 141.536C345.454 144.073 344.569 147.016 344.586 150.283L348.586 150.262ZM350.527 143.873C351.854 142.032 353.713 140.555 356.187 139.467L354.577 135.805C351.535 137.142 349.077 139.044 347.282 141.536L350.527 143.873ZM356.187 139.467C358.651 138.384 361.513 137.818 364.814 137.818V133.818C361.053 133.818 357.628 134.464 354.577 135.805L356.187 139.467ZM364.814 137.818C368.196 137.818 371.026 138.394 373.36 139.474L375.04 135.844C372.071 134.47 368.644 133.818 364.814 133.818V137.818ZM373.372 139.48C375.738 140.555 377.501 142.03 378.742 143.885L382.067 141.661C380.368 139.122 377.995 137.187 375.028 135.838L373.372 139.48ZM378.742 143.885C379.975 145.728 380.628 147.886 380.655 150.43L384.654 150.388C384.62 147.144 383.773 144.211 382.067 141.661L378.742 143.885ZM382.655 148.409H371.882V152.409H382.655V148.409Z" fill="#FF0000" mask="url(#path-1-outside-1_4_5)"/>
<path d="M71.5568 106L58.0114 59.4545H70.4432L77.4659 89.9545H77.8523L85.875 59.4545H96.0114L104.034 90.0227H104.42L111.466 59.4545H123.875L110.352 106H99.5114L91.125 77.7727H90.7614L82.375 106H71.5568ZM128.523 106V59.4545H160.977V68.5909H139.773V78.1364H159.318V87.2955H139.773V96.8636H160.977V106H128.523ZM181.773 59.4545H195.705L207.523 88.2727H208.068L219.886 59.4545H233.818V106H222.864V77.4091H222.477L211.295 105.705H204.295L193.114 77.25H192.727V106H181.773V59.4545ZM250.903 106H238.812L254.517 59.4545H269.494L285.199 106H273.108L262.176 71.1818H261.812L250.903 106ZM249.29 87.6818H274.562V96.2273H249.29V87.6818ZM290.21 106V59.4545H301.46V79.1364H302.074L317.46 59.4545H330.71L314.21 80.2273L331.006 106H317.551L305.96 87.7045L301.46 93.3864V106H290.21ZM335.148 106V59.4545H367.602V68.5909H346.398V78.1364H365.943V87.2955H346.398V96.8636H367.602V106H335.148Z" fill="white"/>
<path d="M78.125 13.7727L73.4375 31.1875H70.1136L74.8011 13.7727H78.125ZM86.3672 13.7727L81.6797 31.1875H78.3558L83.0433 13.7727H86.3672ZM94.6094 13.7727L89.9219 31.1875H86.598L91.2855 13.7727H94.6094ZM102.852 13.7727L98.1641 31.1875H94.8402L99.5277 13.7727H102.852ZM111.094 13.7727L106.406 31.1875H103.082L107.77 13.7727H111.094ZM119.336 13.7727L114.648 31.1875H111.325L116.012 13.7727H119.336ZM127.578 13.7727L122.891 31.1875H119.567L124.254 13.7727H127.578ZM135.82 13.7727L131.133 31.1875H127.809L132.496 13.7727H135.82Z" fill="white"/>
</svg>
