<svg width="338" height="49" viewBox="0 0 338 49" fill="none" xmlns="http://www.w3.org/2000/svg">
<mask id="path-1-outside-1_4_3" maskUnits="userSpaceOnUse" x="-2" y="-2" width="342" height="53" fill="black">
<rect fill="white" x="-2" y="-2" width="342" height="53"/>
<path d="M0.0727305 48V1.45454H19.4818C22.9667 1.45454 25.8833 1.94697 28.2318 2.93182C30.5955 3.91666 32.3682 5.29545 33.55 7.06818C34.747 8.84091 35.3455 10.8939 35.3455 13.2273C35.3455 15 34.9742 16.5833 34.2318 17.9773C33.4894 19.3561 32.4667 20.5 31.1636 21.4091C29.8606 22.3182 28.353 22.9545 26.6409 23.3182V23.7727C28.5197 23.8636 30.2545 24.3712 31.8455 25.2955C33.4515 26.2197 34.7394 27.5076 35.7091 29.1591C36.6788 30.7955 37.1636 32.7348 37.1636 34.9773C37.1636 37.4773 36.5273 39.7121 35.2546 41.6818C33.9818 43.6364 32.1409 45.1818 29.7318 46.3182C27.3227 47.4394 24.3985 48 20.9591 48H0.0727305ZM11.3227 38.9318H18.2773C20.7167 38.9318 22.5121 38.4697 23.6636 37.5455C24.8303 36.6212 25.4136 35.3333 25.4136 33.6818C25.4136 32.4848 25.1333 31.4545 24.5727 30.5909C24.0121 29.7121 23.2167 29.0379 22.1864 28.5682C21.1561 28.0833 19.9212 27.8409 18.4818 27.8409H11.3227V38.9318ZM11.3227 20.5909H17.55C18.7773 20.5909 19.8682 20.3864 20.8227 19.9773C21.7773 19.5682 22.5197 18.9773 23.05 18.2045C23.5955 17.4318 23.8682 16.5 23.8682 15.4091C23.8682 13.8485 23.3152 12.6212 22.2091 11.7273C21.103 10.8333 19.6106 10.3864 17.7318 10.3864H11.3227V20.5909ZM77.1318 1.45454H88.3591V31.4773C88.3591 34.947 87.5333 37.9697 85.8818 40.5455C84.2303 43.1061 81.9273 45.0909 78.9727 46.5C76.0182 47.8939 72.5864 48.5909 68.6773 48.5909C64.7227 48.5909 61.2682 47.8939 58.3136 46.5C55.3591 45.0909 53.0636 43.1061 51.4273 40.5455C49.7909 37.9697 48.9727 34.947 48.9727 31.4773V1.45454H60.2227V30.5C60.2227 32.1061 60.5712 33.5379 61.2682 34.7955C61.9803 36.053 62.9727 37.0379 64.2455 37.75C65.5182 38.4621 66.9955 38.8182 68.6773 38.8182C70.3591 38.8182 71.8288 38.4621 73.0864 37.75C74.3591 37.0379 75.3515 36.053 76.0636 34.7955C76.7758 33.5379 77.1318 32.1061 77.1318 30.5V1.45454ZM101.81 48V1.45454H121.038C124.522 1.45454 127.53 2.08333 130.06 3.34091C132.606 4.58333 134.568 6.37121 135.947 8.70454C137.325 11.0227 138.015 13.7727 138.015 16.9545C138.015 20.1818 137.31 22.9242 135.901 25.1818C134.492 27.4242 132.492 29.1364 129.901 30.3182C127.31 31.4848 124.242 32.0682 120.697 32.0682H108.538V23.2045H118.606C120.303 23.2045 121.719 22.9848 122.856 22.5455C124.007 22.0909 124.878 21.4091 125.469 20.5C126.06 19.5758 126.356 18.3939 126.356 16.9545C126.356 15.5151 126.06 14.3258 125.469 13.3864C124.878 12.4318 124.007 11.7197 122.856 11.25C121.704 10.7652 120.288 10.5227 118.606 10.5227H113.06V48H101.81ZM128.015 26.7273L139.606 48H127.333L115.969 26.7273H128.015ZM181.131 16.6591C180.873 15.7045 180.494 14.8636 179.994 14.1364C179.494 13.3939 178.881 12.7652 178.153 12.25C177.426 11.7348 176.593 11.3485 175.653 11.0909C174.714 10.8182 173.684 10.6818 172.562 10.6818C170.305 10.6818 168.35 11.2273 166.699 12.3182C165.062 13.4091 163.797 15 162.903 17.0909C162.009 19.1667 161.562 21.6894 161.562 24.6591C161.562 27.6439 161.994 30.1894 162.858 32.2955C163.722 34.4015 164.972 36.0076 166.608 37.1136C168.244 38.2197 170.229 38.7727 172.562 38.7727C174.623 38.7727 176.366 38.4394 177.79 37.7727C179.229 37.0909 180.32 36.1288 181.062 34.8864C181.805 33.6439 182.176 32.1818 182.176 30.5L184.267 30.75H172.949V22.5455H193.017V28.7045C193.017 32.8712 192.131 36.4394 190.358 39.4091C188.6 42.3788 186.176 44.6591 183.085 46.25C180.009 47.8409 176.472 48.6364 172.472 48.6364C168.032 48.6364 164.131 47.6742 160.767 45.75C157.403 43.8258 154.782 41.0833 152.903 37.5227C151.025 33.947 150.085 29.7045 150.085 24.7955C150.085 20.9773 150.653 17.5909 151.79 14.6364C152.926 11.6667 154.509 9.15151 156.54 7.09091C158.585 5.0303 160.949 3.4697 163.631 2.40909C166.328 1.34848 169.229 0.81818 172.335 0.81818C175.032 0.81818 177.54 1.20454 179.858 1.97727C182.191 2.75 184.252 3.84091 186.04 5.25C187.843 6.65909 189.305 8.33333 190.426 10.2727C191.547 12.2121 192.244 14.3409 192.517 16.6591H181.131ZM206.048 48V1.45454H238.502V10.5909H217.298V20.1364H236.843V29.2955H217.298V38.8636H238.502V48H206.048ZM251.948 48V1.45454H271.175C274.66 1.45454 277.667 2.08333 280.198 3.34091C282.743 4.58333 284.705 6.37121 286.084 8.70454C287.463 11.0227 288.152 13.7727 288.152 16.9545C288.152 20.1818 287.448 22.9242 286.039 25.1818C284.63 27.4242 282.63 29.1364 280.039 30.3182C277.448 31.4848 274.38 32.0682 270.834 32.0682H258.675V23.2045H268.743C270.44 23.2045 271.857 22.9848 272.993 22.5455C274.145 22.0909 275.016 21.4091 275.607 20.5C276.198 19.5758 276.493 18.3939 276.493 16.9545C276.493 15.5151 276.198 14.3258 275.607 13.3864C275.016 12.4318 274.145 11.7197 272.993 11.25C271.842 10.7652 270.425 10.5227 268.743 10.5227H263.198V48H251.948ZM278.152 26.7273L289.743 48H277.47L266.107 26.7273H278.152ZM325.882 15.4091C325.73 13.7424 325.056 12.447 323.859 11.5227C322.677 10.5833 320.988 10.1136 318.791 10.1136C317.336 10.1136 316.124 10.303 315.155 10.6818C314.185 11.0606 313.458 11.5833 312.973 12.25C312.488 12.9015 312.238 13.6515 312.223 14.5C312.192 15.197 312.329 15.8106 312.632 16.3409C312.95 16.8712 313.405 17.3409 313.995 17.75C314.602 18.1439 315.329 18.4924 316.177 18.7955C317.026 19.0985 317.98 19.3636 319.041 19.5909L323.041 20.5C325.344 21 327.374 21.6667 329.132 22.5C330.905 23.3333 332.389 24.3258 333.586 25.4773C334.798 26.6288 335.715 27.9545 336.336 29.4545C336.958 30.9545 337.276 32.6364 337.291 34.5C337.276 37.4394 336.533 39.9621 335.064 42.0682C333.594 44.1742 331.48 45.7879 328.723 46.9091C325.98 48.0303 322.67 48.5909 318.791 48.5909C314.897 48.5909 311.503 48.0076 308.609 46.8409C305.715 45.6742 303.465 43.9015 301.859 41.5227C300.253 39.1439 299.427 36.1364 299.382 32.5H310.155C310.245 34 310.647 35.25 311.359 36.25C312.071 37.25 313.048 38.0076 314.291 38.5227C315.548 39.0379 317.003 39.2955 318.655 39.2955C320.17 39.2955 321.458 39.0909 322.518 38.6818C323.594 38.2727 324.42 37.7045 324.995 36.9773C325.571 36.25 325.867 35.4167 325.882 34.4773C325.867 33.5985 325.594 32.8485 325.064 32.2273C324.533 31.5909 323.715 31.0455 322.609 30.5909C321.518 30.1212 320.124 29.6894 318.427 29.2955L313.564 28.1591C309.533 27.2348 306.359 25.7424 304.041 23.6818C301.723 21.6061 300.571 18.803 300.586 15.2727C300.571 12.3939 301.344 9.87121 302.905 7.70454C304.465 5.53788 306.624 3.84848 309.382 2.63636C312.139 1.42424 315.283 0.81818 318.814 0.81818C322.42 0.81818 325.548 1.43182 328.2 2.65909C330.867 3.87121 332.935 5.57576 334.405 7.77273C335.874 9.9697 336.624 12.5151 336.655 15.4091H325.882Z"/>
</mask>
<path d="M0.072731 48H-1.92727V50H0.072731V48ZM0.072731 1.45454V-0.545456H-1.92727V1.45454H0.072731ZM28.2318 2.93182L27.4584 4.77621L27.4626 4.77797L28.2318 2.93182ZM33.55 7.06818L31.8859 8.1776L31.8925 8.18737L33.55 7.06818ZM34.2318 17.9773L35.9928 18.9255L35.9971 18.9174L34.2318 17.9773ZM31.1636 21.4091L30.0193 19.7688H30.0193L31.1636 21.4091ZM26.6409 23.3182L26.2254 21.3618L24.6409 21.6983V23.3182H26.6409ZM26.6409 23.7727H24.6409V25.6783L26.5443 25.7704L26.6409 23.7727ZM31.8455 25.2955L30.8408 27.0248L30.8479 27.0289L31.8455 25.2955ZM35.7091 29.1591L33.9844 30.1718L33.9885 30.1787L35.7091 29.1591ZM35.2545 41.6818L36.9306 42.7732L36.9344 42.7672L35.2545 41.6818ZM29.7318 46.3182L30.5757 48.1314L30.5851 48.127L29.7318 46.3182ZM11.3227 38.9318H9.32273V40.9318H11.3227V38.9318ZM23.6636 37.5455L22.4217 35.9777L22.4118 35.9857L23.6636 37.5455ZM24.5727 30.5909L22.8866 31.6665L22.8909 31.6732L22.8952 31.6799L24.5727 30.5909ZM22.1864 28.5682L21.3348 30.3778L21.3457 30.383L21.3568 30.388L22.1864 28.5682ZM11.3227 27.8409V25.8409H9.32273V27.8409H11.3227ZM11.3227 20.5909H9.32273V22.5909H11.3227V20.5909ZM23.05 18.2045L21.4161 17.0512L21.4084 17.062L21.401 17.0729L23.05 18.2045ZM22.2091 11.7273L23.4663 10.1718L22.2091 11.7273ZM11.3227 10.3864V8.38637H9.32273V10.3864H11.3227ZM2.07273 48V1.45454H-1.92727V48H2.07273ZM0.072731 3.45454H19.4818V-0.545456H0.072731V3.45454ZM19.4818 3.45454C22.7928 3.45454 25.4272 3.92442 27.4584 4.77621L29.0053 1.08743C26.3395 -0.0304794 23.1406 -0.545456 19.4818 -0.545456V3.45454ZM27.4626 4.77797C29.5364 5.64204 30.964 6.79476 31.8859 8.17758L35.2141 5.95878C33.7723 3.79614 31.6545 2.19128 29.0011 1.08566L27.4626 4.77797ZM31.8925 8.18737C32.8459 9.59947 33.3455 11.2549 33.3455 13.2273H37.3455C37.3455 10.533 36.648 8.08234 35.2075 5.94899L31.8925 8.18737ZM33.3455 13.2273C33.3455 14.7128 33.0368 15.9665 32.4666 17.0371L35.9971 18.9174C36.9117 17.2002 37.3455 15.2872 37.3455 13.2273H33.3455ZM32.4709 17.0291C31.8792 18.1279 31.0693 19.0363 30.0193 19.7688L32.308 23.0493C33.864 21.9637 35.0996 20.5842 35.9928 18.9255L32.4709 17.0291ZM30.0193 19.7688C28.957 20.51 27.7026 21.0481 26.2254 21.3618L27.0564 25.2745C29.0035 24.861 30.7643 24.1264 32.308 23.0493L30.0193 19.7688ZM24.6409 23.3182V23.7727H28.6409V23.3182H24.6409ZM26.5443 25.7704C28.1107 25.8462 29.5331 26.2651 30.8408 27.0248L32.8501 23.5661C30.976 22.4774 28.9287 21.8811 26.7376 21.7751L26.5443 25.7704ZM30.8479 27.0289C32.1428 27.7741 33.1843 28.8091 33.9844 30.1718L37.4338 28.1464C36.2945 26.2061 34.7602 24.6653 32.843 23.562L30.8479 27.0289ZM33.9885 30.1787C34.7449 31.4551 35.1636 33.0289 35.1636 34.9773H39.1636C39.1636 32.4408 38.6127 30.1358 37.4297 28.1395L33.9885 30.1787ZM35.1636 34.9773C35.1636 37.1188 34.6245 38.9718 33.5747 40.5964L36.9344 42.7672C38.4301 40.4524 39.1636 37.8357 39.1636 34.9773H35.1636ZM33.5786 40.5905C32.5357 42.1919 31.0009 43.5082 28.8786 44.5093L30.5851 48.127C33.2809 46.8554 35.4279 45.0808 36.9305 42.7732L33.5786 40.5905ZM28.8879 44.5049C26.8089 45.4725 24.1894 46 20.9591 46V50C24.6076 50 27.8365 49.4063 30.5757 48.1314L28.8879 44.5049ZM20.9591 46H0.072731V50H20.9591V46ZM11.3227 40.9318H18.2773V36.9318H11.3227V40.9318ZM18.2773 40.9318C20.8985 40.9318 23.2424 40.4481 24.9155 39.1052L22.4118 35.9857C21.7819 36.4913 20.5348 36.9318 18.2773 36.9318V40.9318ZM24.9056 39.1131C26.6079 37.7645 27.4136 35.8679 27.4136 33.6818H23.4136C23.4136 34.7987 23.0527 35.4779 22.4217 35.9778L24.9056 39.1131ZM27.4136 33.6818C27.4136 32.1625 27.0538 30.7397 26.2503 29.502L22.8952 31.6799C23.2129 32.1693 23.4136 32.8072 23.4136 33.6818H27.4136ZM26.2589 29.5153C25.4727 28.2829 24.3661 27.3638 23.016 26.7484L21.3568 30.388C22.0673 30.7119 22.5516 31.1414 22.8866 31.6665L26.2589 29.5153ZM23.038 26.7585C21.6806 26.1198 20.1403 25.8409 18.4818 25.8409V29.8409C19.7022 29.8409 20.6315 30.0469 21.3348 30.3778L23.038 26.7585ZM18.4818 25.8409H11.3227V29.8409H18.4818V25.8409ZM9.32273 27.8409V38.9318H13.3227V27.8409H9.32273ZM11.3227 22.5909H17.55V18.5909H11.3227V22.5909ZM17.55 22.5909C18.9996 22.5909 20.3661 22.3489 21.6106 21.8156L20.0349 18.139C19.3703 18.4238 18.5549 18.5909 17.55 18.5909V22.5909ZM21.6106 21.8156C22.8744 21.2739 23.9316 20.4545 24.699 19.3362L21.401 17.0729C21.1078 17.5001 20.6802 17.8624 20.0349 18.139L21.6106 21.8156ZM24.6839 19.3579C25.5027 18.1979 25.8682 16.8475 25.8682 15.4091H21.8682C21.8682 16.1525 21.6882 16.6657 21.4161 17.0512L24.6839 19.3579ZM25.8682 15.4091C25.8682 13.3114 25.0919 11.4856 23.4663 10.1718L20.9519 13.2828C21.5384 13.7568 21.8682 14.3855 21.8682 15.4091H25.8682ZM23.4663 10.1718C21.9043 8.90937 19.9204 8.38637 17.7318 8.38637V12.3864C19.3008 12.3864 20.3018 12.7573 20.9519 13.2828L23.4663 10.1718ZM17.7318 8.38637H11.3227V12.3864H17.7318V8.38637ZM9.32273 10.3864V20.5909H13.3227V10.3864H9.32273ZM77.1318 1.45454V-0.545456H75.1318V1.45454H77.1318ZM88.3591 1.45454H90.3591V-0.545456H88.3591V1.45454ZM85.8818 40.5455L87.5626 41.6295L87.5655 41.625L85.8818 40.5455ZM78.9727 46.5L79.8261 48.3088L79.8337 48.3052L78.9727 46.5ZM58.3136 46.5L57.4527 48.3052L57.4603 48.3088L58.3136 46.5ZM51.4273 40.5455L49.7391 41.6179L49.742 41.6224L51.4273 40.5455ZM48.9727 1.45454V-0.545456H46.9727V1.45454H48.9727ZM60.2227 1.45454H62.2227V-0.545456H60.2227V1.45454ZM61.2682 34.7955L59.5189 35.765L59.5233 35.773L59.5278 35.7809L61.2682 34.7955ZM64.2455 37.75L65.222 36.0046H65.222L64.2455 37.75ZM73.0864 37.75L72.1098 36.0046L72.1009 36.0097L73.0864 37.75ZM77.1318 3.45454H88.3591V-0.545456H77.1318V3.45454ZM86.3591 1.45454V31.4773H90.3591V1.45454H86.3591ZM86.3591 31.4773C86.3591 34.617 85.6164 37.254 84.1982 39.4659L87.5655 41.625C89.4503 38.6854 90.3591 35.2769 90.3591 31.4773H86.3591ZM84.2011 39.4614C82.7657 41.687 80.7573 43.4331 78.1118 44.6948L79.8337 48.3052C83.0972 46.7487 85.695 44.5251 87.5626 41.6295L84.2011 39.4614ZM78.1194 44.6912C75.479 45.9369 72.3485 46.5909 68.6773 46.5909V50.5909C72.8242 50.5909 76.5574 49.851 79.8261 48.3088L78.1194 44.6912ZM68.6773 46.5909C64.9567 46.5909 61.8045 45.9355 59.167 44.6912L57.4603 48.3088C60.7319 49.8523 64.4887 50.5909 68.6773 50.5909V46.5909ZM59.1746 44.6948C56.5304 43.4337 54.532 41.6897 53.1125 39.4685L49.742 41.6224C51.5953 44.5224 54.1878 46.7481 57.4527 48.3052L59.1746 44.6948ZM53.1154 39.473C51.7096 37.2601 50.9727 34.6205 50.9727 31.4773H46.9727C46.9727 35.2734 47.8722 38.6792 49.7391 41.6179L53.1154 39.473ZM50.9727 31.4773V1.45454H46.9727V31.4773H50.9727ZM48.9727 3.45454H60.2227V-0.545456H48.9727V3.45454ZM58.2227 1.45454V30.5H62.2227V1.45454H58.2227ZM58.2227 30.5C58.2227 32.4048 58.6389 34.1772 59.5189 35.765L63.0175 33.826C62.5035 32.8985 62.2227 31.8073 62.2227 30.5H58.2227ZM59.5278 35.7809C60.422 37.36 61.6799 38.6063 63.2689 39.4954L65.222 36.0046C64.2655 35.4695 63.5386 34.7461 63.0085 33.81L59.5278 35.7809ZM63.2689 39.4954C64.883 40.3985 66.7065 40.8182 68.6773 40.8182V36.8182C67.2845 36.8182 66.1533 36.5257 65.222 36.0046L63.2689 39.4954ZM68.6773 40.8182C70.6475 40.8182 72.4677 40.3987 74.0719 39.4903L72.1009 36.0097C71.1899 36.5255 70.0707 36.8182 68.6773 36.8182V40.8182ZM74.0629 39.4954C75.6519 38.6063 76.9098 37.36 77.804 35.7809L74.3233 33.81C73.7932 34.7461 73.0663 35.4695 72.1098 36.0046L74.0629 39.4954ZM77.804 35.7809C78.7047 34.1904 79.1318 32.4122 79.1318 30.5H75.1318C75.1318 31.8 74.8468 32.8854 74.3233 33.81L77.804 35.7809ZM79.1318 30.5V1.45454H75.1318V30.5H79.1318ZM101.81 48H99.8102V50H101.81V48ZM101.81 1.45454V-0.545456H99.8102V1.45454H101.81ZM130.06 3.34091L129.17 5.1319L129.177 5.13509L129.183 5.13824L130.06 3.34091ZM135.947 8.70454L134.225 9.72201L134.228 9.72692L135.947 8.70454ZM135.901 25.1818L137.595 26.2459L137.598 26.2408L135.901 25.1818ZM129.901 30.3182L130.722 32.1418L130.731 32.1378L129.901 30.3182ZM108.538 32.0682H106.538V34.0682H108.538V32.0682ZM108.538 23.2045V21.2045H106.538V23.2045H108.538ZM122.856 22.5455L123.577 24.4109L123.59 24.4058L122.856 22.5455ZM125.469 20.5L127.146 21.59L127.15 21.5837L127.154 21.5773L125.469 20.5ZM125.469 13.3864L123.769 14.4391L123.773 14.4452L123.776 14.4513L125.469 13.3864ZM122.856 11.25L122.08 13.0933L122.09 13.0976L122.1 13.1019L122.856 11.25ZM113.06 10.5227V8.52273H111.06V10.5227H113.06ZM113.06 48V50H115.06V48H113.06ZM128.015 26.7273L129.771 25.7704L129.203 24.7273H128.015V26.7273ZM139.606 48V50H142.973L141.362 47.0431L139.606 48ZM127.333 48L125.569 48.9424L126.134 50H127.333V48ZM115.969 26.7273V24.7273H112.633L114.205 27.6696L115.969 26.7273ZM103.81 48V1.45454H99.8102V48H103.81ZM101.81 3.45454H121.038V-0.545456H101.81V3.45454ZM121.038 3.45454C124.284 3.45454 126.973 4.04013 129.17 5.1319L130.95 1.54991C128.086 0.126534 124.761 -0.545456 121.038 -0.545456V3.45454ZM129.183 5.13824C131.393 6.21713 133.054 7.74136 134.225 9.722L137.668 7.68709C136.081 5.00106 133.818 2.94953 130.938 1.54358L129.183 5.13824ZM134.228 9.72692C135.392 11.6842 136.015 14.0674 136.015 16.9545H140.015C140.015 13.4781 139.259 10.3613 137.666 7.68217L134.228 9.72692ZM136.015 16.9545C136.015 19.8874 135.377 22.2446 134.205 24.1228L137.598 26.2408C139.244 23.6039 140.015 20.4762 140.015 16.9545H136.015ZM134.208 24.1177C133.022 26.0042 131.335 27.4661 129.071 28.4986L130.731 32.1378C133.649 30.8067 135.962 28.8442 137.595 26.2459L134.208 24.1177ZM129.08 28.4945C126.803 29.5199 124.027 30.0682 120.697 30.0682V34.0682C124.457 34.0682 127.818 33.4498 130.722 32.1418L129.08 28.4945ZM120.697 30.0682H108.538V34.0682H120.697V30.0682ZM110.538 32.0682V23.2045H106.538V32.0682H110.538ZM108.538 25.2045H118.606V21.2045H108.538V25.2045ZM118.606 25.2045C120.459 25.2045 122.139 24.9667 123.577 24.4109L122.134 20.6801C121.299 21.003 120.146 21.2045 118.606 21.2045V25.2045ZM123.59 24.4058C125.071 23.8211 126.298 22.8955 127.146 21.59L123.792 19.41C123.459 19.9227 122.943 20.3607 122.121 20.6852L123.59 24.4058ZM127.154 21.5773C128.006 20.2453 128.356 18.6588 128.356 16.9545H124.356C124.356 18.1291 124.114 18.9062 123.784 19.4227L127.154 21.5773ZM128.356 16.9545C128.356 15.2484 128.005 13.6617 127.162 12.3215L123.776 14.4513C124.115 14.9898 124.356 15.7819 124.356 16.9545H128.356ZM127.17 12.3337C126.332 10.9808 125.11 10.0095 123.611 9.39813L122.1 13.1019C122.905 13.4299 123.424 13.8828 123.769 14.4391L127.17 12.3337ZM123.632 9.40673C122.165 8.78932 120.467 8.52273 118.606 8.52273V12.5227C120.108 12.5227 121.243 12.741 122.08 13.0933L123.632 9.40673ZM118.606 8.52273H113.06V12.5227H118.606V8.52273ZM111.06 10.5227V48H115.06V10.5227H111.06ZM113.06 46H101.81V50H113.06V46ZM126.259 27.6842L137.849 48.9569L141.362 47.0431L129.771 25.7704L126.259 27.6842ZM139.606 46H127.333V50H139.606V46ZM129.097 47.0576L117.733 25.7849L114.205 27.6696L125.569 48.9424L129.097 47.0576ZM115.969 28.7273H128.015V24.7273H115.969V28.7273ZM181.131 16.6591L179.2 17.1801L179.599 18.6591H181.131V16.6591ZM179.994 14.1364L178.335 15.2536L178.341 15.2615L178.346 15.2694L179.994 14.1364ZM175.653 11.0909L175.096 13.0116L175.11 13.0158L175.125 13.0197L175.653 11.0909ZM166.699 12.3182L165.597 10.6494L165.589 10.6541L166.699 12.3182ZM162.903 17.0909L164.74 17.882L164.742 17.8771L162.903 17.0909ZM162.858 32.2955L164.708 31.5366L162.858 32.2955ZM166.608 37.1136L167.728 35.4566L166.608 37.1136ZM177.79 37.7727L178.638 39.5841L178.646 39.5802L177.79 37.7727ZM181.062 34.8864L179.346 33.8605L181.062 34.8864ZM182.176 30.5L182.414 28.5141L180.176 28.2466V30.5H182.176ZM184.267 30.75V32.75L184.504 28.7641L184.267 30.75ZM172.949 30.75H170.949V32.75H172.949V30.75ZM172.949 22.5455V20.5455H170.949V22.5455H172.949ZM193.017 22.5455H195.017V20.5455H193.017V22.5455ZM190.358 39.4091L188.641 38.384L188.637 38.3904L190.358 39.4091ZM183.085 46.25L182.17 44.4717L182.166 44.4736L183.085 46.25ZM160.767 45.75L161.76 44.014L160.767 45.75ZM152.903 37.5227L151.133 38.453L151.135 38.4561L152.903 37.5227ZM151.79 14.6364L153.656 15.3543L153.658 15.3511L151.79 14.6364ZM156.54 7.09091L155.12 5.68192L155.115 5.68721L156.54 7.09091ZM163.631 2.40909L162.899 0.547836L162.895 0.549248L163.631 2.40909ZM179.858 1.97727L179.225 3.87464L179.229 3.87587L179.858 1.97727ZM186.04 5.25L184.802 6.8208L184.808 6.82585L186.04 5.25ZM190.426 10.2727L188.695 11.2737L190.426 10.2727ZM192.517 16.6591V18.6591H194.766L194.503 16.4254L192.517 16.6591ZM183.062 16.138C182.752 14.991 182.285 13.9381 181.642 13.0033L178.346 15.2694C178.704 15.7892 178.994 16.4181 179.2 17.1801L183.062 16.138ZM181.653 13.0192C181.019 12.077 180.235 11.2735 179.309 10.618L176.997 13.882C177.526 14.2568 177.97 14.7109 178.335 15.2536L181.653 13.0192ZM179.309 10.618C178.375 9.95613 177.326 9.47558 176.182 9.1621L175.125 13.0197C175.86 13.2214 176.477 13.5136 176.997 13.882L179.309 10.618ZM176.211 9.17022C175.066 8.83785 173.845 8.68182 172.562 8.68182V12.6818C173.522 12.6818 174.362 12.7985 175.096 13.0116L176.211 9.17022ZM172.562 8.68182C169.97 8.68182 167.619 9.31316 165.597 10.6494L167.801 13.987C169.081 13.1414 170.64 12.6818 172.562 12.6818V8.68182ZM165.589 10.6541C163.582 11.9926 162.087 13.9137 161.064 16.3047L164.742 17.8771C165.508 16.0863 166.543 14.8256 167.808 13.9823L165.589 10.6541ZM161.067 16.2998C160.037 18.6906 159.562 21.4987 159.562 24.6591H163.562C163.562 21.8801 163.982 19.6427 164.74 17.882L161.067 16.2998ZM159.562 24.6591C159.562 27.8272 160.02 30.6452 161.007 33.0543L164.708 31.5366C163.969 29.7336 163.562 27.4606 163.562 24.6591H159.562ZM161.007 33.0543C161.997 35.468 163.477 37.4115 165.488 38.7706L167.728 35.4566C166.466 34.6036 165.446 33.335 164.708 31.5366L161.007 33.0543ZM165.488 38.7706C167.511 40.1383 169.904 40.7727 172.562 40.7727V36.7727C170.554 36.7727 168.977 36.3011 167.728 35.4566L165.488 38.7706ZM172.562 40.7727C174.829 40.7727 176.879 40.4073 178.638 39.5841L176.942 35.9613C175.852 36.4715 174.417 36.7727 172.562 36.7727V40.7727ZM178.646 39.5802C180.406 38.7466 181.813 37.5286 182.779 35.9123L179.346 33.8605C178.827 34.729 178.053 35.4352 176.934 35.9653L178.646 39.5802ZM182.779 35.9123C183.735 34.3125 184.176 32.4837 184.176 30.5H180.176C180.176 31.8799 179.875 32.9754 179.346 33.8605L182.779 35.9123ZM181.939 32.4859L184.03 32.7359L184.504 28.7641L182.414 28.5141L181.939 32.4859ZM184.267 28.75H172.949V32.75H184.267V28.75ZM174.949 30.75V22.5455H170.949V30.75H174.949ZM172.949 24.5455H193.017V20.5455H172.949V24.5455ZM191.017 22.5455V28.7045H195.017V22.5455H191.017ZM191.017 28.7045C191.017 32.5844 190.194 35.7822 188.641 38.384L192.075 40.4342C194.068 37.0966 195.017 33.1581 195.017 28.7045H191.017ZM188.637 38.3904C187.072 41.0336 184.929 43.0518 182.17 44.4717L184.001 48.0283C187.424 46.2664 190.128 43.724 192.079 40.4277L188.637 38.3904ZM182.166 44.4736C179.416 45.8963 176.202 46.6364 172.472 46.6364V50.6364C176.742 50.6364 180.603 49.7855 184.004 48.0264L182.166 44.4736ZM172.472 46.6364C168.329 46.6364 164.78 45.7414 161.76 44.014L159.774 47.486C163.482 49.6071 167.735 50.6364 172.472 50.6364V46.6364ZM161.76 44.014C158.739 42.2858 156.381 39.828 154.672 36.5894L151.135 38.4561C153.183 42.3387 156.068 45.3657 159.774 47.486L161.76 44.014ZM154.674 36.5925C152.975 33.3591 152.085 29.4495 152.085 24.7955H148.085C148.085 29.9596 149.074 34.5349 151.133 38.453L154.674 36.5925ZM152.085 24.7955C152.085 21.1735 152.624 18.0379 153.656 15.3543L149.923 13.9184C148.682 17.1439 148.085 20.7811 148.085 24.7955H152.085ZM153.658 15.3511C154.705 12.6134 156.146 10.3399 157.964 8.49461L155.115 5.68721C152.873 7.96314 151.147 10.7199 149.922 13.9216L153.658 15.3511ZM157.959 8.49989C159.812 6.63378 161.943 5.22733 164.366 4.26893L162.895 0.549248C159.955 1.71206 157.359 3.42683 155.12 5.68192L157.959 8.49989ZM164.363 4.27034C166.81 3.30783 169.462 2.81818 172.335 2.81818V-1.18182C168.997 -1.18182 165.845 -0.610863 162.899 0.547836L164.363 4.27034ZM172.335 2.81818C174.839 2.81818 177.131 3.17655 179.225 3.87464L180.49 0.0799026C177.948 -0.767464 175.225 -1.18182 172.335 -1.18182V2.81818ZM179.229 3.87587C181.36 4.58139 183.21 5.5666 184.802 6.82079L187.278 3.67921C185.293 2.11523 183.023 0.91861 180.487 0.0786743L179.229 3.87587ZM184.808 6.82585C186.414 8.0806 187.705 9.56104 188.695 11.2737L192.158 9.27172C190.905 7.10563 189.272 5.23759 187.271 3.67415L184.808 6.82585ZM188.695 11.2737C189.674 12.9675 190.288 14.8335 190.531 16.8928L194.503 16.4254C194.2 13.8484 193.421 11.4568 192.158 9.27172L188.695 11.2737ZM192.517 14.6591H181.131V18.6591H192.517V14.6591ZM206.048 48H204.048V50H206.048V48ZM206.048 1.45454V-0.545456H204.048V1.45454H206.048ZM238.502 1.45454H240.502V-0.545456H238.502V1.45454ZM238.502 10.5909V12.5909H240.502V10.5909H238.502ZM217.298 10.5909V8.59091H215.298V10.5909H217.298ZM217.298 20.1364H215.298V22.1364H217.298V20.1364ZM236.843 20.1364H238.843V18.1364H236.843V20.1364ZM236.843 29.2955V31.2955H238.843V29.2955H236.843ZM217.298 29.2955V27.2955H215.298V29.2955H217.298ZM217.298 38.8636H215.298V40.8636H217.298V38.8636ZM238.502 38.8636H240.502V36.8636H238.502V38.8636ZM238.502 48V50H240.502V48H238.502ZM208.048 48V1.45454H204.048V48H208.048ZM206.048 3.45454H238.502V-0.545456H206.048V3.45454ZM236.502 1.45454V10.5909H240.502V1.45454H236.502ZM238.502 8.59091H217.298V12.5909H238.502V8.59091ZM215.298 10.5909V20.1364H219.298V10.5909H215.298ZM217.298 22.1364H236.843V18.1364H217.298V22.1364ZM234.843 20.1364V29.2955H238.843V20.1364H234.843ZM236.843 27.2955H217.298V31.2955H236.843V27.2955ZM215.298 29.2955V38.8636H219.298V29.2955H215.298ZM217.298 40.8636H238.502V36.8636H217.298V40.8636ZM236.502 38.8636V48H240.502V38.8636H236.502ZM238.502 46H206.048V50H238.502V46ZM251.948 48H249.948V50H251.948V48ZM251.948 1.45454V-0.545456H249.948V1.45454H251.948ZM280.198 3.34091L279.308 5.1319L279.314 5.13509L279.32 5.13824L280.198 3.34091ZM286.084 8.70454L284.362 9.72201L284.365 9.72692L286.084 8.70454ZM286.039 25.1818L287.732 26.2459L287.735 26.2408L286.039 25.1818ZM280.039 30.3182L280.86 32.1418L280.869 32.1378L280.039 30.3182ZM258.675 32.0682H256.675V34.0682H258.675V32.0682ZM258.675 23.2045V21.2045H256.675V23.2045H258.675ZM272.993 22.5455L273.714 24.4109L273.728 24.4058L272.993 22.5455ZM275.607 20.5L277.284 21.59L277.288 21.5837L277.292 21.5773L275.607 20.5ZM275.607 13.3864L273.906 14.4391L273.91 14.4452L273.914 14.4513L275.607 13.3864ZM272.993 11.25L272.217 13.0933L272.227 13.0976L272.238 13.1019L272.993 11.25ZM263.198 10.5227V8.52273H261.198V10.5227H263.198ZM263.198 48V50H265.198V48H263.198ZM278.152 26.7273L279.908 25.7704L279.34 24.7273H278.152V26.7273ZM289.743 48V50H293.111L291.499 47.0431L289.743 48ZM277.47 48L275.706 48.9424L276.271 50H277.47V48ZM266.107 26.7273V24.7273H262.771L264.343 27.6696L266.107 26.7273ZM253.948 48V1.45454H249.948V48H253.948ZM251.948 3.45454H271.175V-0.545456H251.948V3.45454ZM271.175 3.45454C274.422 3.45454 277.111 4.04013 279.308 5.1319L281.088 1.54991C278.224 0.126534 274.898 -0.545456 271.175 -0.545456V3.45454ZM279.32 5.13824C281.531 6.21713 283.192 7.74136 284.362 9.722L287.806 7.68709C286.219 5.00106 283.955 2.94953 281.075 1.54358L279.32 5.13824ZM284.365 9.72692C285.529 11.6842 286.152 14.0674 286.152 16.9545H290.152C290.152 13.4781 289.396 10.3613 287.803 7.68217L284.365 9.72692ZM286.152 16.9545C286.152 19.8874 285.514 22.2446 284.342 24.1228L287.735 26.2408C289.381 23.6039 290.152 20.4762 290.152 16.9545H286.152ZM284.345 24.1177C283.16 26.0042 281.472 27.4661 279.209 28.4986L280.869 32.1378C283.787 30.8067 286.099 28.8442 287.732 26.2459L284.345 24.1177ZM279.217 28.4945C276.94 29.5199 274.165 30.0682 270.834 30.0682V34.0682C274.595 34.0682 277.955 33.4498 280.86 32.1418L279.217 28.4945ZM270.834 30.0682H258.675V34.0682H270.834V30.0682ZM260.675 32.0682V23.2045H256.675V32.0682H260.675ZM258.675 25.2045H268.743V21.2045H258.675V25.2045ZM268.743 25.2045C270.597 25.2045 272.277 24.9667 273.714 24.4109L272.272 20.6801C271.437 21.003 270.283 21.2045 268.743 21.2045V25.2045ZM273.728 24.4058C275.209 23.8211 276.435 22.8955 277.284 21.59L273.93 19.41C273.597 19.9227 273.081 20.3607 272.259 20.6852L273.728 24.4058ZM277.292 21.5773C278.143 20.2453 278.493 18.6588 278.493 16.9545H274.493C274.493 18.1291 274.252 18.9062 273.922 19.4227L277.292 21.5773ZM278.493 16.9545C278.493 15.2484 278.143 13.6617 277.3 12.3215L273.914 14.4513C274.253 14.9898 274.493 15.7819 274.493 16.9545H278.493ZM277.307 12.3337C276.47 10.9808 275.247 10.0095 273.749 9.39813L272.238 13.1019C273.042 13.4299 273.562 13.8828 273.906 14.4391L277.307 12.3337ZM273.769 9.40673C272.303 8.78932 270.605 8.52273 268.743 8.52273V12.5227C270.245 12.5227 271.38 12.741 272.217 13.0933L273.769 9.40673ZM268.743 8.52273H263.198V12.5227H268.743V8.52273ZM261.198 10.5227V48H265.198V10.5227H261.198ZM263.198 46H251.948V50H263.198V46ZM276.396 27.6842L287.987 48.9569L291.499 47.0431L279.908 25.7704L276.396 27.6842ZM289.743 46H277.47V50H289.743V46ZM279.235 47.0576L267.871 25.7849L264.343 27.6696L275.706 48.9424L279.235 47.0576ZM266.107 28.7273H278.152V24.7273H266.107V28.7273ZM325.882 15.4091L323.89 15.5902L324.055 17.4091H325.882V15.4091ZM323.859 11.5227L322.615 13.0884L322.626 13.0971L322.637 13.1057L323.859 11.5227ZM315.155 10.6818L314.427 8.8189L315.155 10.6818ZM312.973 12.25L314.577 13.444L314.584 13.4352L314.59 13.4263L312.973 12.25ZM312.223 14.5L314.221 14.5869L314.222 14.5613L314.222 14.5357L312.223 14.5ZM312.632 16.3409L310.895 17.3332L310.906 17.3517L310.917 17.3699L312.632 16.3409ZM313.995 17.75L312.857 19.3944L312.881 19.411L312.905 19.4269L313.995 17.75ZM316.177 18.7955L316.85 16.912L316.177 18.7955ZM319.041 19.5909L319.484 17.6406L319.472 17.6379L319.46 17.6353L319.041 19.5909ZM323.041 20.5L322.598 22.4503L322.607 22.4524L322.617 22.4545L323.041 20.5ZM329.132 22.5L328.275 24.3072L328.281 24.31L329.132 22.5ZM333.586 25.4773L332.2 26.9186L332.209 26.9273L333.586 25.4773ZM336.336 29.4545L334.489 30.2198L336.336 29.4545ZM337.291 34.5L339.291 34.5103L339.291 34.497L339.291 34.4837L337.291 34.5ZM335.064 42.0682L333.424 40.9236L335.064 42.0682ZM328.723 46.9091L327.969 45.0564L327.966 45.0578L328.723 46.9091ZM308.609 46.8409L309.357 44.986L308.609 46.8409ZM299.382 32.5V30.5H297.357L297.382 32.525L299.382 32.5ZM310.155 32.5L312.151 32.379L312.037 30.5H310.155V32.5ZM311.359 36.25L309.73 37.4101L311.359 36.25ZM314.291 38.5227L313.525 40.3702L313.533 40.3735L314.291 38.5227ZM322.518 38.6818L321.807 36.8124L321.798 36.8158L322.518 38.6818ZM324.995 36.9773L323.427 35.7359L324.995 36.9773ZM325.882 34.4773L327.882 34.5095L327.882 34.4762L327.882 34.4428L325.882 34.4773ZM325.064 32.2273L323.527 33.5076L323.535 33.5168L323.543 33.5258L325.064 32.2273ZM322.609 30.5909L321.818 32.4279L321.833 32.4345L321.849 32.4408L322.609 30.5909ZM318.427 29.2955L317.972 31.243L317.975 31.2437L318.427 29.2955ZM313.564 28.1591L314.019 26.2115L314.011 26.2097L313.564 28.1591ZM304.041 23.6818L302.707 25.1718L302.712 25.1766L304.041 23.6818ZM300.586 15.2727L302.586 15.2813L302.586 15.2718L302.586 15.2622L300.586 15.2727ZM302.905 7.70454L301.282 6.53564L302.905 7.70454ZM309.382 2.63637L310.187 4.46729L309.382 2.63637ZM328.2 2.65909L327.36 4.47414L327.372 4.47982L328.2 2.65909ZM334.405 7.77273L336.067 6.66068L334.405 7.77273ZM336.655 15.4091V17.4091H338.676L338.654 15.3882L336.655 15.4091ZM327.874 15.228C327.678 13.0729 326.768 11.2422 325.081 9.93971L322.637 13.1057C323.344 13.6517 323.783 14.4119 323.89 15.5902L327.874 15.228ZM325.104 9.95708C323.438 8.63345 321.241 8.11363 318.791 8.11363V12.1136C320.735 12.1136 321.916 12.5332 322.615 13.0884L325.104 9.95708ZM318.791 8.11363C317.179 8.11363 315.701 8.32127 314.427 8.8189L315.882 12.5447C316.548 12.2848 317.494 12.1136 318.791 12.1136V8.11363ZM314.427 8.8189C313.194 9.30044 312.117 10.0258 311.355 11.0737L314.59 13.4263C314.798 13.1408 315.176 12.8208 315.882 12.5447L314.427 8.8189ZM311.368 11.056C310.622 12.0585 310.245 13.2179 310.223 14.4643L314.222 14.5357C314.23 14.0851 314.354 13.7445 314.577 13.444L311.368 11.056ZM310.225 14.4131C310.18 15.4323 310.379 16.4304 310.895 17.3332L314.368 15.3486C314.278 15.1908 314.205 14.9616 314.221 14.5869L310.225 14.4131ZM310.917 17.3699C311.403 18.1804 312.07 18.8495 312.857 19.3944L315.134 16.1056C314.739 15.8323 314.497 15.562 314.347 15.3119L310.917 17.3699ZM312.905 19.4269C313.669 19.9235 314.544 20.3358 315.505 20.6789L316.85 16.912C316.114 16.6491 315.534 16.3644 315.085 16.0731L312.905 19.4269ZM315.505 20.6789C316.451 21.0168 317.492 21.3044 318.622 21.5465L319.46 17.6353C318.469 17.4229 317.601 17.1802 316.85 16.912L315.505 20.6789ZM318.598 21.5412L322.598 22.4503L323.484 18.5497L319.484 17.6406L318.598 21.5412ZM322.617 22.4545C324.801 22.9286 326.681 23.5513 328.275 24.3072L329.989 20.6928C328.068 19.782 325.887 19.0714 323.465 18.5455L322.617 22.4545ZM328.281 24.31C329.891 25.0667 331.185 25.9427 332.2 26.9186L334.973 24.0359C333.593 22.7088 331.918 21.6 329.983 20.69L328.281 24.31ZM332.209 26.9273C333.224 27.8919 333.978 28.9862 334.489 30.2198L338.184 28.6893C337.453 26.9229 336.373 25.3657 334.964 24.0273L332.209 26.9273ZM334.489 30.2198C334.998 31.4498 335.278 32.8721 335.291 34.5163L339.291 34.4837C339.274 32.4007 338.917 30.4593 338.184 28.6893L334.489 30.2198ZM335.291 34.4897C335.278 37.0839 334.629 39.1969 333.424 40.9236L336.704 43.2127C338.438 40.7274 339.274 37.7949 339.291 34.5103L335.291 34.4897ZM333.424 40.9236C332.208 42.6651 330.427 44.057 327.969 45.0564L329.476 48.7618C332.533 47.5188 334.98 45.6834 336.704 43.2127L333.424 40.9236ZM327.966 45.0578C325.525 46.0556 322.486 46.5909 318.791 46.5909V50.5909C322.853 50.5909 326.435 50.005 329.48 48.7603L327.966 45.0578ZM318.791 46.5909C315.092 46.5909 311.962 46.0363 309.357 44.986L307.861 48.6958C311.044 49.9789 314.702 50.5909 318.791 50.5909V46.5909ZM309.357 44.986C306.799 43.9548 304.88 42.423 303.517 40.4036L300.202 42.6419C302.05 45.38 304.631 47.3937 307.861 48.6958L309.357 44.986ZM303.517 40.4036C302.181 38.4248 301.424 35.8249 301.382 32.475L297.382 32.525C297.431 36.4479 298.325 39.8631 300.202 42.6419L303.517 40.4036ZM299.382 34.5H310.155V30.5H299.382V34.5ZM308.158 32.621C308.267 34.411 308.756 36.043 309.73 37.4101L312.988 35.0899C312.538 34.457 312.224 33.589 312.151 32.379L308.158 32.621ZM309.73 37.4101C310.68 38.7446 311.97 39.7256 313.525 40.3702L315.057 36.6752C314.127 36.2895 313.462 35.7554 312.988 35.0899L309.73 37.4101ZM313.533 40.3735C315.077 41.0059 316.798 41.2955 318.655 41.2955V37.2955C317.209 37.2955 316.02 37.0698 315.049 36.672L313.533 40.3735ZM318.655 41.2955C320.339 41.2955 321.885 41.0695 323.238 40.5478L321.798 36.8158C321.03 37.1123 320.001 37.2955 318.655 37.2955V41.2955ZM323.229 40.5512C324.561 40.0446 325.716 39.2895 326.564 38.2187L323.427 35.7359C323.124 36.1196 322.627 36.5009 321.807 36.8124L323.229 40.5512ZM326.564 38.2187C327.416 37.142 327.859 35.8823 327.882 34.5095L323.882 34.445C323.874 34.951 323.727 35.358 323.427 35.7359L326.564 38.2187ZM327.882 34.4428C327.859 33.1378 327.44 31.9308 326.585 30.9287L323.543 33.5258C323.748 33.7661 323.874 34.0591 323.882 34.5117L327.882 34.4428ZM326.6 30.9469C325.789 29.974 324.652 29.2682 323.369 28.741L321.849 32.4408C322.778 32.8228 323.277 33.2078 323.527 33.5076L326.6 30.9469ZM323.4 28.7539C322.162 28.2209 320.644 27.7569 318.88 27.3473L317.975 31.2437C319.604 31.6219 320.874 32.0215 321.818 32.4279L323.4 28.7539ZM318.882 27.3479L314.019 26.2115L313.109 30.1066L317.972 31.243L318.882 27.3479ZM314.011 26.2097C310.203 25.3365 307.367 23.9624 305.37 22.187L302.712 25.1766C305.351 27.5224 308.864 29.1332 313.117 30.1085L314.011 26.2097ZM305.375 22.1918C303.543 20.551 302.573 18.3253 302.586 15.2813L298.586 15.2641C298.569 19.2808 299.903 22.6612 302.707 25.1718L305.375 22.1918ZM302.586 15.2622C302.573 12.7716 303.234 10.6694 304.527 8.87345L301.282 6.53564C299.454 9.07298 298.569 12.0163 298.586 15.2832L302.586 15.2622ZM304.527 8.87345C305.854 7.03223 307.713 5.55453 310.187 4.46729L308.577 0.805435C305.535 2.14244 303.077 4.04353 301.282 6.53564L304.527 8.87345ZM310.187 4.46729C312.651 3.38419 315.513 2.81818 318.814 2.81818V-1.18182C315.053 -1.18182 311.628 -0.535698 308.577 0.805435L310.187 4.46729ZM318.814 2.81818C322.196 2.81818 325.026 3.39378 327.36 4.4741L329.04 0.844078C326.071 -0.530144 322.644 -1.18182 318.814 -1.18182V2.81818ZM327.372 4.47982C329.738 5.55515 331.501 7.02988 332.742 8.88477L336.067 6.66068C334.368 4.12164 331.995 2.18727 329.028 0.838356L327.372 4.47982ZM332.742 8.88477C333.975 10.7281 334.628 12.8865 334.655 15.43L338.654 15.3882C338.62 12.1438 337.773 9.21132 336.067 6.66068L332.742 8.88477ZM336.655 13.4091H325.882V17.4091H336.655V13.4091Z" fill="#FF0000" mask="url(#path-1-outside-1_4_3)"/>
</svg>
