<svg width="40" height="40" viewBox="0 0 40 40" fill="none" xmlns="http://www.w3.org/2000/svg">
<path fill-rule="evenodd" clip-rule="evenodd" d="M12.0794 6.78356C14.0497 4.44399 16.8409 3.33337 20 3.33337C23.232 3.33337 26.0067 4.64027 27.9399 7.02207C29.657 9.13769 30.6287 11.9952 30.8044 15.317C30.853 15.3241 30.9042 15.3316 30.9582 15.3394L30.9925 15.3444C31.2747 15.3853 31.6132 15.4351 31.965 15.5032C33.2674 15.7554 35.4885 16.3918 36.2537 18.7765C36.6379 19.9744 36.4449 21.0849 35.774 21.9644C35.1947 22.7239 34.3675 23.1617 33.7774 23.4275C33.4827 23.5604 33.1907 23.6739 32.9447 23.7675C33.5204 25.3277 34.5235 26.933 35.6335 28.387C36.6789 29.7564 36.4024 31.4925 35.862 32.6234C35.3209 33.7562 34.1499 35.0517 32.4474 35.1255C31.4839 35.1674 30.4722 35.266 29.4652 35.4492C29.0104 35.532 28.4735 35.7144 27.8065 35.9899C27.4089 36.1542 27.044 36.3167 26.6504 36.4922C26.3375 36.6315 26.0064 36.779 25.6257 36.9422C24.0575 37.6142 22.133 38.3334 20 38.3334C17.8669 38.3334 15.9424 37.6142 14.3742 36.9422C13.9937 36.779 13.6625 36.6315 13.3497 36.4922C12.9559 36.3167 12.5911 36.1542 12.1934 35.9899C11.5265 35.7144 10.9897 35.532 10.5348 35.4492C9.52782 35.266 8.51611 35.1674 7.55261 35.1255C5.85011 35.0517 4.67904 33.7562 4.13792 32.6234C3.59767 31.4925 3.32109 29.7564 4.36647 28.387C5.48349 26.9239 6.49226 25.3074 7.06609 23.738C6.84376 23.6485 6.58297 23.5414 6.31857 23.4177C5.74121 23.1475 4.95809 22.7165 4.38086 21.9932C3.73434 21.183 3.45011 20.1384 3.70256 18.9417C4.24284 16.3806 6.65241 15.7406 7.92667 15.5014C8.28846 15.4335 8.63924 15.384 8.93482 15.3429C8.95457 15.3402 8.97397 15.3375 8.99307 15.3349C9.06372 15.3251 9.12997 15.3159 9.19241 15.3071C9.35809 11.765 10.323 8.86902 12.0794 6.78356ZM14.629 8.93081C13.3589 10.4388 12.5 12.8645 12.5 16.4286V16.6038L12.4635 16.7752C12.2778 17.6487 11.6073 18.056 11.2741 18.2129C10.923 18.3782 10.5456 18.4602 10.2787 18.5097C10.0188 18.558 9.72907 18.5982 9.46969 18.634C9.44379 18.6375 9.41817 18.6412 9.39292 18.6447C9.09734 18.6857 8.81712 18.7259 8.54161 18.7775C7.26669 19.0169 7.02654 19.3337 6.96411 19.6297C6.91967 19.8404 6.95804 19.8827 6.98014 19.907C6.98237 19.9095 6.98626 19.914 6.98626 19.914C7.07511 20.0254 7.28844 20.1912 7.73116 20.3984C7.93856 20.4954 8.15661 20.5842 8.39919 20.6812C8.41844 20.689 8.43812 20.6969 8.45817 20.7049C8.66937 20.7894 8.92141 20.89 9.14414 20.9944C9.36221 21.0965 9.72791 21.2795 10.0361 21.5752C10.396 21.9204 10.8325 22.5942 10.6214 23.4812C10.0138 26.0342 8.48096 28.4904 7.01759 30.4075C7.01229 30.4174 6.99047 30.4665 6.99089 30.5827C6.99146 30.7417 7.03671 30.9585 7.14566 31.1865C7.25449 31.4144 7.39662 31.59 7.52519 31.6955C7.63099 31.7824 7.69072 31.7944 7.69856 31.7955C8.78369 31.8425 9.94914 31.9545 11.1318 32.1699C11.9375 32.3165 12.733 32.6062 13.4665 32.9094C13.8707 33.0764 14.3352 33.2825 14.7863 33.4827C15.1016 33.6225 15.4103 33.7597 15.6873 33.8784C17.1847 34.52 18.583 35 20 35C21.417 35 22.8152 34.52 24.3127 33.8784C24.5897 33.7597 24.8984 33.6225 25.2137 33.4827C25.6647 33.2825 26.1292 33.0764 26.5335 32.9094C27.2669 32.6062 28.0625 32.3165 28.8682 32.1699C30.0509 31.9545 31.2164 31.8425 32.3014 31.7955C32.3094 31.7942 32.369 31.7824 32.4749 31.6955C32.6034 31.59 32.7455 31.4144 32.8544 31.1865C32.9632 30.9585 33.0085 30.7417 33.009 30.5827C33.0097 30.4277 32.9705 30.3922 32.984 30.4097C31.5202 28.4924 29.9864 26.0352 29.3785 23.4812C29.1529 22.533 29.6689 21.8472 30.0235 21.532C30.3389 21.2517 30.7102 21.0774 30.9357 20.9782C31.1594 20.8797 31.4132 20.7835 31.6304 20.7012C31.6579 20.6907 31.6847 20.6805 31.7109 20.6707C31.9645 20.5742 32.1934 20.4852 32.4082 20.3884C32.857 20.1862 33.0494 20.0319 33.1155 19.953C33.1132 19.9257 33.1052 19.8747 33.0797 19.7949C32.9282 19.3225 32.4995 19.002 31.3312 18.7757C31.0654 18.7242 30.7974 18.6844 30.514 18.6432C30.4929 18.64 30.4714 18.637 30.4495 18.6339C30.1992 18.5977 29.9159 18.5567 29.6612 18.5067C29.4032 18.4562 29.03 18.371 28.6805 18.1972C28.3297 18.0227 27.7134 17.6077 27.5364 16.7752L27.5 16.6038V16.4286C27.5 13.1799 26.6544 10.7276 25.3517 9.12269C24.0765 7.55151 22.268 6.66671 20 6.66671C17.6592 6.66671 15.8669 7.46086 14.629 8.93081Z" fill="white"/>
</svg>
