<svg width="496" height="124" viewBox="0 0 496 124" fill="none" xmlns="http://www.w3.org/2000/svg">
<path fill-rule="evenodd" clip-rule="evenodd" d="M0 20.6667L20.6667 0H10.3333L0 10.3333V20.6667Z" fill="#FF0000"/>
<path fill-rule="evenodd" clip-rule="evenodd" d="M20.6666 20.6667V10.3333L10.3333 20.6667H20.6666Z" fill="#FF0000"/>
<path fill-rule="evenodd" clip-rule="evenodd" d="M20.6666 20.6667L41.3333 0H31L20.6666 10.3333V20.6667Z" fill="#FF0000"/>
<path fill-rule="evenodd" clip-rule="evenodd" d="M41.3332 20.6667V10.3333L30.9999 20.6667H41.3332Z" fill="#FF0000"/>
<path fill-rule="evenodd" clip-rule="evenodd" d="M41.3333 20.6667L61.9999 0H51.6666L41.3333 10.3333V20.6667Z" fill="#FF0000"/>
<path fill-rule="evenodd" clip-rule="evenodd" d="M62 20.6667V10.3333L51.6666 20.6667H62Z" fill="#FF0000"/>
<path fill-rule="evenodd" clip-rule="evenodd" d="M0 41.3334L20.6667 20.6667H10.3333L0 31.0001V41.3334Z" fill="#FF0000"/>
<path fill-rule="evenodd" clip-rule="evenodd" d="M20.6666 41.3334V31L10.3333 41.3334H20.6666Z" fill="#FF0000"/>
<path fill-rule="evenodd" clip-rule="evenodd" d="M20.6666 41.3334L41.3333 20.6667H31L20.6666 31.0001V41.3334Z" fill="#FF0000"/>
<path fill-rule="evenodd" clip-rule="evenodd" d="M41.3332 41.3334V31L30.9999 41.3334H41.3332Z" fill="#FF0000"/>
<path fill-rule="evenodd" clip-rule="evenodd" d="M41.3333 41.3334L61.9999 20.6667H51.6666L41.3333 31.0001V41.3334Z" fill="#FF0000"/>
<path fill-rule="evenodd" clip-rule="evenodd" d="M62 41.3334V31L51.6666 41.3334H62Z" fill="#FF0000"/>
<path fill-rule="evenodd" clip-rule="evenodd" d="M0 62L20.6667 41.3333H10.3333L0 51.6667V62Z" fill="#FF0000"/>
<path fill-rule="evenodd" clip-rule="evenodd" d="M20.6666 62V51.6667L10.3333 62H20.6666Z" fill="#FF0000"/>
<path fill-rule="evenodd" clip-rule="evenodd" d="M20.6666 62L41.3333 41.3333H31L20.6666 51.6667V62Z" fill="#FF0000"/>
<path fill-rule="evenodd" clip-rule="evenodd" d="M41.3332 62V51.6667L30.9999 62H41.3332Z" fill="#FF0000"/>
<path fill-rule="evenodd" clip-rule="evenodd" d="M41.3333 62L61.9999 41.3333H51.6666L41.3333 51.6667V62Z" fill="#FF0000"/>
<path fill-rule="evenodd" clip-rule="evenodd" d="M62 62V51.6667L51.6666 62H62Z" fill="#FF0000"/>
<path fill-rule="evenodd" clip-rule="evenodd" d="M62 82.6667L82.6667 62H72.3333L62 72.3333V82.6667Z" fill="#FF0000"/>
<path fill-rule="evenodd" clip-rule="evenodd" d="M82.6666 82.6667V72.3333L72.3333 82.6667H82.6666Z" fill="#FF0000"/>
<path fill-rule="evenodd" clip-rule="evenodd" d="M82.6666 82.6667L103.333 62H93L82.6666 72.3333V82.6667Z" fill="#FF0000"/>
<path fill-rule="evenodd" clip-rule="evenodd" d="M103.333 82.6667V72.3333L92.9999 82.6667H103.333Z" fill="#FF0000"/>
<path fill-rule="evenodd" clip-rule="evenodd" d="M103.333 82.6667L124 62H113.667L103.333 72.3333V82.6667Z" fill="#FF0000"/>
<path fill-rule="evenodd" clip-rule="evenodd" d="M124 82.6667V72.3333L113.667 82.6667H124Z" fill="#FF0000"/>
<path fill-rule="evenodd" clip-rule="evenodd" d="M62 103.333L82.6667 82.6667H72.3333L62 93.0001V103.333Z" fill="#FF0000"/>
<path fill-rule="evenodd" clip-rule="evenodd" d="M82.6666 103.333V93L72.3333 103.333H82.6666Z" fill="#FF0000"/>
<path fill-rule="evenodd" clip-rule="evenodd" d="M82.6666 103.333L103.333 82.6667H93L82.6666 93.0001V103.333Z" fill="#FF0000"/>
<path fill-rule="evenodd" clip-rule="evenodd" d="M103.333 103.333V93L92.9999 103.333H103.333Z" fill="#FF0000"/>
<path fill-rule="evenodd" clip-rule="evenodd" d="M103.333 103.333L124 82.6667H113.667L103.333 93.0001V103.333Z" fill="#FF0000"/>
<path fill-rule="evenodd" clip-rule="evenodd" d="M124 103.333V93L113.667 103.333H124Z" fill="#FF0000"/>
<path fill-rule="evenodd" clip-rule="evenodd" d="M62 124L82.6667 103.333H72.3333L62 113.667V124Z" fill="#FF0000"/>
<path fill-rule="evenodd" clip-rule="evenodd" d="M82.6666 124V113.667L72.3333 124H82.6666Z" fill="#FF0000"/>
<path fill-rule="evenodd" clip-rule="evenodd" d="M82.6666 124L103.333 103.333H93L82.6666 113.667V124Z" fill="#FF0000"/>
<path fill-rule="evenodd" clip-rule="evenodd" d="M103.333 124V113.667L92.9999 124H103.333Z" fill="#FF0000"/>
<path fill-rule="evenodd" clip-rule="evenodd" d="M103.333 124L124 103.333H113.667L103.333 113.667V124Z" fill="#FF0000"/>
<path fill-rule="evenodd" clip-rule="evenodd" d="M124 124V113.667L113.667 124H124Z" fill="#FF0000"/>
<path fill-rule="evenodd" clip-rule="evenodd" d="M186 82.6667L206.667 62H196.333L186 72.3333V82.6667Z" fill="#FF0000"/>
<path fill-rule="evenodd" clip-rule="evenodd" d="M206.667 82.6667V72.3333L196.333 82.6667H206.667Z" fill="#FF0000"/>
<path fill-rule="evenodd" clip-rule="evenodd" d="M206.667 82.6667L227.333 62H217L206.667 72.3333V82.6667Z" fill="#FF0000"/>
<path fill-rule="evenodd" clip-rule="evenodd" d="M227.333 82.6667V72.3333L217 82.6667H227.333Z" fill="#FF0000"/>
<path fill-rule="evenodd" clip-rule="evenodd" d="M227.333 82.6667L248 62H237.667L227.333 72.3333V82.6667Z" fill="#FF0000"/>
<path fill-rule="evenodd" clip-rule="evenodd" d="M248 82.6667V72.3333L237.667 82.6667H248Z" fill="#FF0000"/>
<path fill-rule="evenodd" clip-rule="evenodd" d="M186 103.333L206.667 82.6667H196.333L186 93.0001V103.333Z" fill="#FF0000"/>
<path fill-rule="evenodd" clip-rule="evenodd" d="M206.667 103.333V93L196.333 103.333H206.667Z" fill="#FF0000"/>
<path fill-rule="evenodd" clip-rule="evenodd" d="M206.667 103.333L227.333 82.6667H217L206.667 93.0001V103.333Z" fill="#FF0000"/>
<path fill-rule="evenodd" clip-rule="evenodd" d="M227.333 103.333V93L217 103.333H227.333Z" fill="#FF0000"/>
<path fill-rule="evenodd" clip-rule="evenodd" d="M227.333 103.333L248 82.6667H237.667L227.333 93.0001V103.333Z" fill="#FF0000"/>
<path fill-rule="evenodd" clip-rule="evenodd" d="M248 103.333V93L237.667 103.333H248Z" fill="#FF0000"/>
<path fill-rule="evenodd" clip-rule="evenodd" d="M186 124L206.667 103.333H196.333L186 113.667V124Z" fill="#FF0000"/>
<path fill-rule="evenodd" clip-rule="evenodd" d="M206.667 124V113.667L196.333 124H206.667Z" fill="#FF0000"/>
<path fill-rule="evenodd" clip-rule="evenodd" d="M206.667 124L227.333 103.333H217L206.667 113.667V124Z" fill="#FF0000"/>
<path fill-rule="evenodd" clip-rule="evenodd" d="M227.333 124V113.667L217 124H227.333Z" fill="#FF0000"/>
<path fill-rule="evenodd" clip-rule="evenodd" d="M227.333 124L248 103.333H237.667L227.333 113.667V124Z" fill="#FF0000"/>
<path fill-rule="evenodd" clip-rule="evenodd" d="M248 124V113.667L237.667 124H248Z" fill="#FF0000"/>
<path fill-rule="evenodd" clip-rule="evenodd" d="M248 20.6667L268.667 0H258.333L248 10.3333V20.6667Z" fill="#FF0000"/>
<path fill-rule="evenodd" clip-rule="evenodd" d="M268.667 20.6667V10.3333L258.333 20.6667H268.667Z" fill="#FF0000"/>
<path fill-rule="evenodd" clip-rule="evenodd" d="M268.667 20.6667L289.333 0H279L268.667 10.3333V20.6667Z" fill="#FF0000"/>
<path fill-rule="evenodd" clip-rule="evenodd" d="M289.333 20.6667V10.3333L279 20.6667H289.333Z" fill="#FF0000"/>
<path fill-rule="evenodd" clip-rule="evenodd" d="M289.333 20.6667L310 0H299.667L289.333 10.3333V20.6667Z" fill="#FF0000"/>
<path fill-rule="evenodd" clip-rule="evenodd" d="M310 20.6667V10.3333L299.667 20.6667H310Z" fill="#FF0000"/>
<path fill-rule="evenodd" clip-rule="evenodd" d="M248 41.3334L268.667 20.6667H258.333L248 31.0001V41.3334Z" fill="#FF0000"/>
<path fill-rule="evenodd" clip-rule="evenodd" d="M268.667 41.3334V31L258.333 41.3334H268.667Z" fill="#FF0000"/>
<path fill-rule="evenodd" clip-rule="evenodd" d="M268.667 41.3334L289.333 20.6667H279L268.667 31.0001V41.3334Z" fill="#FF0000"/>
<path fill-rule="evenodd" clip-rule="evenodd" d="M289.333 41.3334V31L279 41.3334H289.333Z" fill="#FF0000"/>
<path fill-rule="evenodd" clip-rule="evenodd" d="M289.333 41.3334L310 20.6667H299.667L289.333 31.0001V41.3334Z" fill="#FF0000"/>
<path fill-rule="evenodd" clip-rule="evenodd" d="M310 41.3334V31L299.667 41.3334H310Z" fill="#FF0000"/>
<path fill-rule="evenodd" clip-rule="evenodd" d="M248 62L268.667 41.3333H258.333L248 51.6667V62Z" fill="#FF0000"/>
<path fill-rule="evenodd" clip-rule="evenodd" d="M268.667 62V51.6667L258.333 62H268.667Z" fill="#FF0000"/>
<path fill-rule="evenodd" clip-rule="evenodd" d="M268.667 62L289.333 41.3333H279L268.667 51.6667V62Z" fill="#FF0000"/>
<path fill-rule="evenodd" clip-rule="evenodd" d="M289.333 62V51.6667L279 62H289.333Z" fill="#FF0000"/>
<path fill-rule="evenodd" clip-rule="evenodd" d="M289.333 62L310 41.3333H299.667L289.333 51.6667V62Z" fill="#FF0000"/>
<path fill-rule="evenodd" clip-rule="evenodd" d="M310 62V51.6667L299.667 62H310Z" fill="#FF0000"/>
<path fill-rule="evenodd" clip-rule="evenodd" d="M310 82.6667L330.667 62H320.333L310 72.3333V82.6667Z" fill="#FF0000"/>
<path fill-rule="evenodd" clip-rule="evenodd" d="M330.667 82.6667V72.3333L320.333 82.6667H330.667Z" fill="#FF0000"/>
<path fill-rule="evenodd" clip-rule="evenodd" d="M330.667 82.6667L351.333 62H341L330.667 72.3333V82.6667Z" fill="#FF0000"/>
<path fill-rule="evenodd" clip-rule="evenodd" d="M351.333 82.6667V72.3333L341 82.6667H351.333Z" fill="#FF0000"/>
<path fill-rule="evenodd" clip-rule="evenodd" d="M351.333 82.6667L372 62H361.667L351.333 72.3333V82.6667Z" fill="#FF0000"/>
<path fill-rule="evenodd" clip-rule="evenodd" d="M372 82.6667V72.3333L361.667 82.6667H372Z" fill="#FF0000"/>
<path fill-rule="evenodd" clip-rule="evenodd" d="M310 103.333L330.667 82.6667H320.333L310 93.0001V103.333Z" fill="#FF0000"/>
<path fill-rule="evenodd" clip-rule="evenodd" d="M330.667 103.333V93L320.333 103.333H330.667Z" fill="#FF0000"/>
<path fill-rule="evenodd" clip-rule="evenodd" d="M330.667 103.333L351.333 82.6667H341L330.667 93.0001V103.333Z" fill="#FF0000"/>
<path fill-rule="evenodd" clip-rule="evenodd" d="M351.333 103.333V93L341 103.333H351.333Z" fill="#FF0000"/>
<path fill-rule="evenodd" clip-rule="evenodd" d="M351.333 103.333L372 82.6667H361.667L351.333 93.0001V103.333Z" fill="#FF0000"/>
<path fill-rule="evenodd" clip-rule="evenodd" d="M372 103.333V93L361.667 103.333H372Z" fill="#FF0000"/>
<path fill-rule="evenodd" clip-rule="evenodd" d="M310 124L330.667 103.333H320.333L310 113.667V124Z" fill="#FF0000"/>
<path fill-rule="evenodd" clip-rule="evenodd" d="M330.667 124V113.667L320.333 124H330.667Z" fill="#FF0000"/>
<path fill-rule="evenodd" clip-rule="evenodd" d="M330.667 124L351.333 103.333H341L330.667 113.667V124Z" fill="#FF0000"/>
<path fill-rule="evenodd" clip-rule="evenodd" d="M351.333 124V113.667L341 124H351.333Z" fill="#FF0000"/>
<path fill-rule="evenodd" clip-rule="evenodd" d="M351.333 124L372 103.333H361.667L351.333 113.667V124Z" fill="#FF0000"/>
<path fill-rule="evenodd" clip-rule="evenodd" d="M372 124V113.667L361.667 124H372Z" fill="#FF0000"/>
<path fill-rule="evenodd" clip-rule="evenodd" d="M372 20.6667L392.667 0H382.333L372 10.3333V20.6667Z" fill="#FF0000"/>
<path fill-rule="evenodd" clip-rule="evenodd" d="M392.667 20.6667V10.3333L382.333 20.6667H392.667Z" fill="#FF0000"/>
<path fill-rule="evenodd" clip-rule="evenodd" d="M392.667 20.6667L413.333 0H403L392.667 10.3333V20.6667Z" fill="#FF0000"/>
<path fill-rule="evenodd" clip-rule="evenodd" d="M413.333 20.6667V10.3333L403 20.6667H413.333Z" fill="#FF0000"/>
<path fill-rule="evenodd" clip-rule="evenodd" d="M413.333 20.6667L434 0H423.667L413.333 10.3333V20.6667Z" fill="#FF0000"/>
<path fill-rule="evenodd" clip-rule="evenodd" d="M434 20.6667V10.3333L423.667 20.6667H434Z" fill="#FF0000"/>
<path fill-rule="evenodd" clip-rule="evenodd" d="M372 41.3334L392.667 20.6667H382.333L372 31.0001V41.3334Z" fill="#FF0000"/>
<path fill-rule="evenodd" clip-rule="evenodd" d="M392.667 41.3334V31L382.333 41.3334H392.667Z" fill="#FF0000"/>
<path fill-rule="evenodd" clip-rule="evenodd" d="M392.667 41.3334L413.333 20.6667H403L392.667 31.0001V41.3334Z" fill="#FF0000"/>
<path fill-rule="evenodd" clip-rule="evenodd" d="M413.333 41.3334V31L403 41.3334H413.333Z" fill="#FF0000"/>
<path fill-rule="evenodd" clip-rule="evenodd" d="M413.333 41.3334L434 20.6667H423.667L413.333 31.0001V41.3334Z" fill="#FF0000"/>
<path fill-rule="evenodd" clip-rule="evenodd" d="M434 41.3334V31L423.667 41.3334H434Z" fill="#FF0000"/>
<path fill-rule="evenodd" clip-rule="evenodd" d="M372 62L392.667 41.3333H382.333L372 51.6667V62Z" fill="#FF0000"/>
<path fill-rule="evenodd" clip-rule="evenodd" d="M392.667 62V51.6667L382.333 62H392.667Z" fill="#FF0000"/>
<path fill-rule="evenodd" clip-rule="evenodd" d="M392.667 62L413.333 41.3333H403L392.667 51.6667V62Z" fill="#FF0000"/>
<path fill-rule="evenodd" clip-rule="evenodd" d="M413.333 62V51.6667L403 62H413.333Z" fill="#FF0000"/>
<path fill-rule="evenodd" clip-rule="evenodd" d="M413.333 62L434 41.3333H423.667L413.333 51.6667V62Z" fill="#FF0000"/>
<path fill-rule="evenodd" clip-rule="evenodd" d="M434 62V51.6667L423.667 62H434Z" fill="#FF0000"/>
<path fill-rule="evenodd" clip-rule="evenodd" d="M434 82.6667L454.667 62H444.333L434 72.3333V82.6667Z" fill="#FF0000"/>
<path fill-rule="evenodd" clip-rule="evenodd" d="M454.667 82.6667V72.3333L444.333 82.6667H454.667Z" fill="#FF0000"/>
<path fill-rule="evenodd" clip-rule="evenodd" d="M454.667 82.6667L475.333 62H465L454.667 72.3333V82.6667Z" fill="#FF0000"/>
<path fill-rule="evenodd" clip-rule="evenodd" d="M475.333 82.6667V72.3333L465 82.6667H475.333Z" fill="#FF0000"/>
<path fill-rule="evenodd" clip-rule="evenodd" d="M475.333 82.6667L496 62H485.667L475.333 72.3333V82.6667Z" fill="#FF0000"/>
<path fill-rule="evenodd" clip-rule="evenodd" d="M496 82.6667V72.3333L485.667 82.6667H496Z" fill="#FF0000"/>
<path fill-rule="evenodd" clip-rule="evenodd" d="M434 103.333L454.667 82.6667H444.333L434 93.0001V103.333Z" fill="#FF0000"/>
<path fill-rule="evenodd" clip-rule="evenodd" d="M454.667 103.333V93L444.333 103.333H454.667Z" fill="#FF0000"/>
<path fill-rule="evenodd" clip-rule="evenodd" d="M454.667 103.333L475.333 82.6667H465L454.667 93.0001V103.333Z" fill="#FF0000"/>
<path fill-rule="evenodd" clip-rule="evenodd" d="M475.333 103.333V93L465 103.333H475.333Z" fill="#FF0000"/>
<path fill-rule="evenodd" clip-rule="evenodd" d="M475.333 103.333L496 82.6667H485.667L475.333 93.0001V103.333Z" fill="#FF0000"/>
<path fill-rule="evenodd" clip-rule="evenodd" d="M496 103.333V93L485.667 103.333H496Z" fill="#FF0000"/>
<path fill-rule="evenodd" clip-rule="evenodd" d="M434 124L454.667 103.333H444.333L434 113.667V124Z" fill="#FF0000"/>
<path fill-rule="evenodd" clip-rule="evenodd" d="M454.667 124V113.667L444.333 124H454.667Z" fill="#FF0000"/>
<path fill-rule="evenodd" clip-rule="evenodd" d="M454.667 124L475.333 103.333H465L454.667 113.667V124Z" fill="#FF0000"/>
<path fill-rule="evenodd" clip-rule="evenodd" d="M475.333 124V113.667L465 124H475.333Z" fill="#FF0000"/>
<path fill-rule="evenodd" clip-rule="evenodd" d="M475.333 124L496 103.333H485.667L475.333 113.667V124Z" fill="#FF0000"/>
<path fill-rule="evenodd" clip-rule="evenodd" d="M496 124V113.667L485.667 124H496Z" fill="#FF0000"/>
<path fill-rule="evenodd" clip-rule="evenodd" d="M124 20.6667L144.667 0H134.333L124 10.3333V20.6667Z" fill="#FF0000"/>
<path fill-rule="evenodd" clip-rule="evenodd" d="M144.667 20.6667V10.3333L134.333 20.6667H144.667Z" fill="#FF0000"/>
<path fill-rule="evenodd" clip-rule="evenodd" d="M144.667 20.6667L165.333 0H155L144.667 10.3333V20.6667Z" fill="#FF0000"/>
<path fill-rule="evenodd" clip-rule="evenodd" d="M165.333 20.6667V10.3333L155 20.6667H165.333Z" fill="#FF0000"/>
<path fill-rule="evenodd" clip-rule="evenodd" d="M165.333 20.6667L186 0H175.667L165.333 10.3333V20.6667Z" fill="#FF0000"/>
<path fill-rule="evenodd" clip-rule="evenodd" d="M186 20.6667V10.3333L175.667 20.6667H186Z" fill="#FF0000"/>
<path fill-rule="evenodd" clip-rule="evenodd" d="M124 41.3334L144.667 20.6667H134.333L124 31.0001V41.3334Z" fill="#FF0000"/>
<path fill-rule="evenodd" clip-rule="evenodd" d="M144.667 41.3334V31L134.333 41.3334H144.667Z" fill="#FF0000"/>
<path fill-rule="evenodd" clip-rule="evenodd" d="M144.667 41.3334L165.333 20.6667H155L144.667 31.0001V41.3334Z" fill="#FF0000"/>
<path fill-rule="evenodd" clip-rule="evenodd" d="M165.333 41.3334V31L155 41.3334H165.333Z" fill="#FF0000"/>
<path fill-rule="evenodd" clip-rule="evenodd" d="M165.333 41.3334L186 20.6667H175.667L165.333 31.0001V41.3334Z" fill="#FF0000"/>
<path fill-rule="evenodd" clip-rule="evenodd" d="M186 41.3334V31L175.667 41.3334H186Z" fill="#FF0000"/>
<path fill-rule="evenodd" clip-rule="evenodd" d="M124 62L144.667 41.3333H134.333L124 51.6667V62Z" fill="#FF0000"/>
<path fill-rule="evenodd" clip-rule="evenodd" d="M144.667 62V51.6667L134.333 62H144.667Z" fill="#FF0000"/>
<path fill-rule="evenodd" clip-rule="evenodd" d="M144.667 62L165.333 41.3333H155L144.667 51.6667V62Z" fill="#FF0000"/>
<path fill-rule="evenodd" clip-rule="evenodd" d="M165.333 62V51.6667L155 62H165.333Z" fill="#FF0000"/>
<path fill-rule="evenodd" clip-rule="evenodd" d="M165.333 62L186 41.3333H175.667L165.333 51.6667V62Z" fill="#FF0000"/>
<path fill-rule="evenodd" clip-rule="evenodd" d="M186 62V51.6667L175.667 62H186Z" fill="#FF0000"/>
</svg>
